<svg viewBox="0 0 589 181" xmlns="http://www.w3.org/2000/svg" xmlns:xlink="http://www.w3.org/1999/xlink"><clipPath id="a"><path d="m11 12a3 3 0 1 1 3 3 3 3 0 0 1 -3-3m-2 0a1.93 1.93 0 0 0 0 .24v.08s0 .1 0 .15v.11s0 .09 0 .13v.08.15a.36.36 0 0 0 0 .1v.12a3 3 0 0 0 .11.4v.13.06c0 .13.1.25.16.37v.07l.18.34.07.11a3.71 3.71 0 0 0 .48.36l.08.11v.05l.07.08v.06c-1.85 1.7-3.15 3.7-4.15 7.7h2.48c.86-3.4 2-5.48 3.52-6.42a5 5 0 0 0 4 0c1.47.94 2.66 3 3.52 6.42h2.48c-1-4-2.3-6-4.29-7.65l.05-.06.07-.08.08-.09.09-.12.22-.33.07-.12.18-.33v-.07c.06-.12.11-.24.16-.37v-.06-.13a3 3 0 0 0 .11-.4.53.53 0 0 0 0-.12.36.36 0 0 0 0-.1v-.15s0 0 0-.08 0-.09 0-.13 0-.07 0-.11 0-.1 0-.15v-.08a1.93 1.93 0 0 0 .26-.27 5 5 0 0 0 -10 0m-7-7h24v18h-24zm-2 20h28v-22h-28z"/></clipPath><clipPath id="b"><path d="m-5-2h38v32h-38z"/></clipPath><clipPath id="c"><path d="m0 3h28v22h-28z"/></clipPath><clipPath id="d"><path d="m13 72a1 1 0 1 1 1 1 1 1 0 0 1 -1-1m-2 0a3 3 0 1 0 3-3 3 3 0 0 0 -3 3m2-14h2v7h-2zm-1-2a1 1 0 0 0 -1 1v9a1 1 0 0 0 1 1h4a1 1 0 0 0 1-1v-9a1 1 0 0 0 -1-1zm-10 9a12 12 0 1 1 12 12 12 12 0 0 1 -12-12m-2 0a14 14 0 1 0 14-14 14 14 0 0 0 -14 14"/></clipPath><clipPath id="e"><path d="m-5 46h38v38h-38z"/></clipPath><clipPath id="f"><path d="m0 51h28v28h-28z"/></clipPath><clipPath id="g"><path d="m16.28 118.47.95-1 7.09 7.09h-20.64l7.09-7.09.94 1a3.25 3.25 0 0 0 2.29 1 3.21 3.21 0 0 0 2.28-1m2.47-2.47 7.1-7.1v14.23zm-16.64-7.14 7.14 7.14-7.14 7.13zm11.13 8.08-9.56-9.56h20.64l-9.56 9.56a1.06 1.06 0 0 1 -1.52 0m-9.88-11.71a3.49 3.49 0 0 0 -3.36 3.59v14.36a3.49 3.49 0 0 0 3.36 3.59h21.28a3.48 3.48 0 0 0 3.36-3.59v-14.36a3.48 3.48 0 0 0 -3.36-3.59z"/></clipPath><clipPath id="h"><path d="m-5.39 99.85h38.77v32.31h-38.77z"/></clipPath><clipPath id="i"><path d="m0 105.23h28v21.54h-28z"/></clipPath><clipPath id="j"><path d="m8 175h10v-2h-10zm0-4h7v-2h-7zm0-4h12v-2h-12zm12-6-.5-3h1.5c2.21 0 3 .79 3 3v15c0 2.21-.79 3-3 3h-14c-2.21 0-3-.79-3-3v-15c0-2.21.79-3 3-3h1.5l-.5 3zm-9.3-4h1.54l1-2h1.52l1 2h1.55l.33 2h-7.28zm1.3-4-1 2h-2l-.17 1h-1.83c-3.31 0-5 1.69-5 5v15c0 3.31 1.69 5 5 5h14c3.31 0 5-1.69 5-5v-15c0-3.31-1.69-5-5-5h-1.83l-.17-1h-2l-1-2z"/></clipPath><clipPath id="k"><path d="m-3 148h34v38h-34z"/></clipPath><clipPath id="l"><path d="m2 153h24v28h-24z"/></clipPath><clipPath id="m"><path d="m59.82 24.37a2.05 2.05 0 0 1 -1.4-1.31 5 5 0 0 1 -.25-1.81c0-3.2 3.55-7 7-7s7.05 3.84 7.05 7a2 2 0 0 1 -.77 1.75 5.67 5.67 0 0 1 -2.75.4c-.48 0-.93 0-1.69-.06-1.11-.06-1.35-.07-1.8-.07a5.83 5.83 0 0 0 -2.63.67l-.35.17a3.48 3.48 0 0 1 -1.48.46 3 3 0 0 1 -.93-.19m-6.55-11.5c-.6-1.64-.09-3.18.85-3.52s2.33.5 2.93 2.15.08 3.18-.86 3.52a1.33 1.33 0 0 1 -.45.08 3 3 0 0 1 -2.47-2.23m20 2.15c-.94-.34-1.46-1.88-.86-3.52s2-2.49 2.92-2.15 1.46 1.88.86 3.52a3 3 0 0 1 -2.48 2.23 1.27 1.27 0 0 1 -.44-.08m-10.37-3.11a3.69 3.69 0 0 0 2.32-2.82v-.2a3.89 3.89 0 0 0 2.68 3.1 3.27 3.27 0 0 0 2.34-.33 5.52 5.52 0 0 0 0 2.29 8.34 8.34 0 0 0 -5-1.8 9 9 0 0 0 -6.64 3.34 5.38 5.38 0 0 0 .34-4.68c0-.14-.11-.27-.17-.4a4.41 4.41 0 0 0 3.23 1.65 2.92 2.92 0 0 0 .93-.15m-3.65-4.64c-.64-1.95-.08-3.67.82-4s2.37.77 3 2.73.08 3.68-.82 4a1.13 1.13 0 0 1 -.32.05c-.89 0-2.12-1-2.68-2.78m9.11 2.8c-.92-.23-1.6-1.91-1.1-3.91s1.88-3.17 2.8-2.93 1.6 1.91 1.1 3.91c-.46 1.83-1.66 3-2.56 3a.88.88 0 0 1 -.24 0m-3.06-4.46c0 .17-.07.34-.1.51q-.09-.39-.21-.78c-1-2.91-3.42-4.71-5.54-4s-3.06 3.58-2.12 6.48a6.37 6.37 0 0 0 .36.89 4 4 0 0 0 -4.29-1.32 4.06 4.06 0 0 0 -2.43 4v.15a6.24 6.24 0 0 0 .37 2c1 2.61 3.42 4.11 5.51 3.35a3.08 3.08 0 0 0 1.18-.76 9 9 0 0 0 -1.9 5.09c0 1 0 4 3 5s4-1 6-1 5.82.57 7.46-.68a4 4 0 0 0 1.6-3.34 8.35 8.35 0 0 0 -1.22-4.28c2 .45 4.21-1 5.1-3.47 1-2.61 0-5.34-2.06-6.1a3.57 3.57 0 0 0 -2.87.24v-.08c.74-3-.41-5.8-2.56-6.34a3 3 0 0 0 -.73-.09c-1.93 0-3.86 1.85-4.52 4.49"/></clipPath><clipPath id="n"><path d="m45.97-3.82h37.72v35.71h-37.72z"/></clipPath><clipPath id="o"><path d="m51 .7h28.17v26.66h-28.17z"/></clipPath><clipPath id="p"><path d="m61 63.63 4-3.33 4 3.33v5.07h-8zm3.36-5.4-5 4.17a1 1 0 0 0 -.36.77v6.53a1 1 0 0 0 1 1h10a1 1 0 0 0 1-1v-6.53a1 1 0 0 0 -.36-.77l-5-4.17a1 1 0 0 0 -1.28 0m-11.36 6.77a12 12 0 1 1 12 12 12 12 0 0 1 -12-12m-2 0a14 14 0 1 0 14-14 14 14 0 0 0 -14 14"/></clipPath><clipPath id="q"><path d="m46 46h38v38h-38z"/></clipPath><clipPath id="r"><path d="m51 51h28v28h-28z"/></clipPath><clipPath id="s"><path d="m63.52 124.27v-7.21a.21.21 0 0 1 .21-.21h2.54a.21.21 0 0 1 .21.21v7.21a.21.21 0 0 1 -.21.21h-2.54a.21.21 0 0 1 -.21-.21m.21-9.12a1.91 1.91 0 0 0 -1.91 1.91v7.21a1.9 1.9 0 0 0 1.91 1.91h2.54a1.9 1.9 0 0 0 1.91-1.91v-7.21a1.91 1.91 0 0 0 -1.91-1.91zm-.21-5a1.48 1.48 0 1 1 1.48 1.5 1.49 1.49 0 0 1 -1.48-1.48m-1.7 0a3.18 3.18 0 1 0 3.18-3.17 3.18 3.18 0 0 0 -3.18 3.19m-9.12 5.81a12.3 12.3 0 1 1 12.3 12.3 12.3 12.3 0 0 1 -12.3-12.3m-1.7 0a14 14 0 1 0 14-14 14 14 0 0 0 -14 14"/></clipPath><clipPath id="t"><path d="m46.72 97.72h36.56v36.56h-36.56z"/></clipPath><clipPath id="u"><path d="m50.97 101.97h28.06v28.06h-28.06z"/></clipPath><clipPath id="v"><path d="m61 168a1 1 0 0 0 0 2h10a1 1 0 0 0 0-2zm-2-5a1 1 0 0 0 0 2h10a1 1 0 0 0 0-2zm-6 3.5c0-5.75 5.33-10.5 12-10.5s12 4.75 12 10.5a14.51 14.51 0 0 1 -1.63 5.32l-.29.63 1.1 4.49-4.56-1.55-.65.23a19.86 19.86 0 0 1 -5.97 1.38c-6.67 0-12-4.75-12-10.5m-2 0c0 6.9 6.27 12.5 14 12.5a21.64 21.64 0 0 0 6.63-1.49l7.37 2.49-1.81-7.34a16 16 0 0 0 1.81-6.16c0-6.9-6.27-12.5-14-12.5s-14 5.6-14 12.5"/></clipPath><clipPath id="w"><path d="m46 149h38v36h-38z"/></clipPath><clipPath id="x"><path d="m51 154h28v26h-28z"/></clipPath><clipPath id="y"><path d="m120.47 25.35a51.46 51.46 0 0 1 -8.79-7 52 52 0 0 1 -7-8.79 4.12 4.12 0 0 1 .57-5.12l2.1-2.11a1 1 0 0 1 1.46 0l4.37 4.37a1 1 0 0 1 0 1.46l-2.96 2.84a19.67 19.67 0 0 0 3.64 5.1 19.67 19.67 0 0 0 5.1 3.64l2.91-2.91a1 1 0 0 1 1.46 0l4.37 4.36a1 1 0 0 1 0 1.46l-2.11 2.1a4.1 4.1 0 0 1 -5.12.56m-12.47-25.31a3 3 0 0 0 -2.1.89l-2.11 2.11a6.13 6.13 0 0 0 -1.79 4.29v.06a6.15 6.15 0 0 0 1 3.26 53.63 53.63 0 0 0 7.31 9.13 53.6 53.6 0 0 0 9.12 7.3 6.13 6.13 0 0 0 7.62-.83l2.1-2.11a3 3 0 0 0 .85-2.1v-.08a3 3 0 0 0 -.89-2.1l-4.37-4.37a3 3 0 0 0 -4.28 0l-1.85 1.85a16.73 16.73 0 0 1 -5.91-5.91l1.85-1.85a3 3 0 0 0 0-4.28l-4.37-4.37a3 3 0 0 0 -2.1-.89z"/></clipPath><clipPath id="z"><path d="m97-5h38.5v38.5h-38.5z"/></clipPath><clipPath id="A"><path d="m102 0h28v28h-28z"/></clipPath><clipPath id="B"><path d="m107.48 60.74h17v14.12l-8.48-4.73-8.52 4.73zm0-7.31h17v4.87h-17zm0-2.43a2.43 2.43 0 0 0 -2.48 2.43v25.57l11-6.09 11 6.09v-25.57a2.43 2.43 0 0 0 -2.48-2.43z"/></clipPath><clipPath id="C"><path d="m98.96 44.3h34.09v40.78h-34.09z"/></clipPath><clipPath id="D"><path d="m105.04 50.39h21.91v28.61h-21.91z"/></clipPath><clipPath id="E"><path d="m105.11 108.75v3.1h-3.11v2.08h3.11v3.07h2.07v-3.11h3.11v-2.08h-3.11v-3.1zm18.06 9.25c0-.19.07-.33.1-.43a8 8 0 0 1 .43-1.07c.53-1.06 1-1.5 1.15-1.5h1c.17 0 .61.44 1.14 1.5a16.1 16.1 0 0 1 .9 4.72h-4.15a18.6 18.6 0 0 0 -.61-3.22m-4.54-3.45.15-.07a3.43 3.43 0 0 1 .72.83 20.58 20.58 0 0 1 1.29 2.26c.88 1.62 1.22 5.59 1 7.8h-10.49c-.11-2.44.23-6.42 1-7.8l.5-.91c.17-.32.31-.56.44-.78a4.63 4.63 0 0 1 1.13-1.37 5.07 5.07 0 0 0 2.2.49 5.16 5.16 0 0 0 2.12-.45m5.18-3.17a1.56 1.56 0 1 1 1.56 1.55 1.56 1.56 0 0 1 -1.56-1.55m-10.41-1.56a3.11 3.11 0 1 1 3.11 3.11 3.11 3.11 0 0 1 -3.11-3.11m-2.07 0a5.14 5.14 0 0 0 1.28 3.41 7.51 7.51 0 0 0 -1.21 1.58l-.48.85-.5.92c-1 1.75-1.36 6.1-1.23 8.89a2.07 2.07 0 0 0 2.07 2h10.55a2.08 2.08 0 0 0 2.07-1.88 20.35 20.35 0 0 0 .05-2.26h4a2.08 2.08 0 0 0 2.07-2.08.62.62 0 0 0 0-.13 17.61 17.61 0 0 0 -1.1-5.51 8.24 8.24 0 0 0 -1-1.59 3.63 3.63 0 1 0 -5 0 7.43 7.43 0 0 0 -.91 1.39l-.06-.12c-.26-.45-.46-.79-.66-1.1a6.73 6.73 0 0 0 -.78-1 5.13 5.13 0 0 0 1.25-3.37 5.19 5.19 0 0 0 -10.37 0"/></clipPath><clipPath id="F"><path d="m96.82 99.42h38.87v33.17h-38.87z"/></clipPath><clipPath id="G"><path d="m102 104.6h28.51v22.81h-28.51z"/></clipPath><clipPath id="H"><path d="m111.91 167a4.09 4.09 0 1 1 4.09 4.09 4.09 4.09 0 0 1 -4.09-4.09m-2 0a6.14 6.14 0 1 0 6.14-6.14 6.14 6.14 0 0 0 -6.14 6.14m10.42-11.51c.31.11.61.24.92.38a4.5 4.5 0 0 0 -.08.9 5.12 5.12 0 0 0 5.11 5.12 5.29 5.29 0 0 0 .9-.08c.14.3.27.6.39.91a5.12 5.12 0 0 0 0 8.56c-.12.31-.25.62-.39.92a4.43 4.43 0 0 0 -.9-.08 5.11 5.11 0 0 0 -5.11 5.11 4.43 4.43 0 0 0 .08.9c-.31.14-.61.27-.92.39a5.12 5.12 0 0 0 -8.56 0c-.31-.12-.61-.25-.92-.39a4.43 4.43 0 0 0 .08-.9 5.11 5.11 0 0 0 -5.11-5.11 4.43 4.43 0 0 0 -.9.08c-.14-.3-.27-.61-.39-.92a5.12 5.12 0 0 0 0-8.56c.12-.31.25-.61.39-.91a5.29 5.29 0 0 0 .9.08 5.12 5.12 0 0 0 5.11-5.12 4.5 4.5 0 0 0 -.08-.9c.31-.14.61-.27.92-.38a5.13 5.13 0 0 0 8.56 0m-4.28.26a3.08 3.08 0 0 1 -3-2.75 14.21 14.21 0 0 0 -4.71 2 3 3 0 0 1 .6 1.81 3.08 3.08 0 0 1 -4.89 2.48 14.26 14.26 0 0 0 -2 4.7 3.07 3.07 0 0 1 0 6.1 14.41 14.41 0 0 0 2 4.71 3.07 3.07 0 0 1 4.89 2.47 3 3 0 0 1 -.6 1.82 14.35 14.35 0 0 0 4.7 1.95 3.07 3.07 0 0 1 6.1 0 14.35 14.35 0 0 0 4.7-1.95 3 3 0 0 1 -.6-1.82 3.07 3.07 0 0 1 4.89-2.47 14.41 14.41 0 0 0 1.95-4.71 3.07 3.07 0 0 1 0-6.1 14.26 14.26 0 0 0 -1.95-4.7 3.08 3.08 0 0 1 -4.89-2.48 3 3 0 0 1 .6-1.81 14.21 14.21 0 0 0 -4.71-2 3.08 3.08 0 0 1 -3 2.75"/></clipPath><clipPath id="I"><path d="m96.56 147.56h38.88v38.88h-38.88z"/></clipPath><clipPath id="J"><path d="m101.67 152.68h28.65v28.65h-28.65z"/></clipPath><clipPath id="K"><path d="m169.16 11.57c2.68 1.41 5.06 5.53 6.16 13.23a1 1 0 0 1 -.78 1.18h-.2-14.83a1 1 0 0 1 -1-1 1.36 1.36 0 0 1 0-.2c1.09-7.66 3.45-11.77 6.11-13.21h.05a6 6 0 0 0 4.47 0m-6.22-5.57a4 4 0 1 1 4 4 4 4 0 0 1 -4-4m-2 0a6 6 0 0 0 1.89 4.37c-3 2.13-5.29 6.76-6.24 14 0 .2-.06.4-.06.6a3 3 0 0 0 3 3h14.83a3.05 3.05 0 0 0 .6-.06 3.09 3.09 0 0 0 2.34-3.54c-.95-7.27-3.29-11.9-6.25-14a6 6 0 1 0 -10.11-4.37"/></clipPath><clipPath id="L"><path d="m151.42-5h31v38h-31z"/></clipPath><clipPath id="M"><path d="m156.42 0h21.5v28h-21.5z"/></clipPath><clipPath id="N"><path d="m165.83 70.35a2.3 2.3 0 0 1 2.34 0 6.53 6.53 0 0 1 -1.17 1 6.58 6.58 0 0 1 -1.17-1m-1.68 0c0 .81.95 1.66 1.62 2.15a1.86 1.86 0 0 1 -1.09.31.79.79 0 0 0 -.81.82.78.78 0 0 0 .81.81 3.65 3.65 0 0 0 2.49-.91 3.57 3.57 0 0 0 2.53.91.79.79 0 0 0 .82-.81 1 1 0 0 0 -1-.82 1.81 1.81 0 0 1 -1.09-.31c1.44-1 1.62-1.72 1.62-2.15 0-1.23-1.27-2.16-2.95-2.16s-2.94.93-2.94 2.16m-3.66-3.28a1.4 1.4 0 0 0 2.8 0 1.47 1.47 0 0 0 -1.4-1.4 1.4 1.4 0 0 0 -1.4 1.4m9.93 0a1.4 1.4 0 1 0 2.8 0 1.47 1.47 0 0 0 -1.4-1.4 1.4 1.4 0 0 0 -1.4 1.4m1.45-8.22c.88-.61 2.2-1.5 3.48-2.35l2.81-1.87v9.86a1.46 1.46 0 0 0 .08.4 17.74 17.74 0 0 1 .58 3.44c0 2.33-1.36 4.56-3.81 6.29a14.49 14.49 0 0 1 -8 2.56 14.27 14.27 0 0 1 -8-2.56c-2.42-1.73-3.76-4-3.76-6.29a20.52 20.52 0 0 1 .64-3.75v-9.83l1.57 1.08c1.57 1.07 3.51 2.39 4.74 3.25l.36.18.31-.16a14 14 0 0 1 8.17 0l.37.18zm7-7c-.25.13-.9.56-2.89 1.89-1.62 1.08-3.4 2.3-4.59 3.12a17.36 17.36 0 0 0 -8.65 0l-4.59-3.12c-2-1.37-2.68-1.79-2.92-1.91l-1.29-.8v12.97a15.86 15.86 0 0 0 -.77 4.2c0 3 1.59 5.76 4.47 7.85a16.35 16.35 0 0 0 9.14 3h.46a16.39 16.39 0 0 0 9.11-3c2.9-2.1 4.5-4.88 4.5-7.85a16.9 16.9 0 0 0 -.65-3.7c-.05-.21-.1-.38-.12-.48v-13.02z"/></clipPath><clipPath id="O"><path d="m147.59 45.01h38.82v39.93h-38.82z"/></clipPath><clipPath id="P"><path d="m153.14 50.56h27.73v28.84h-27.73z"/></clipPath><clipPath id="Q"><path d="m170.91 120.61h2.09v2h-2.05zm-1-2a1 1 0 0 0 -1 1v4.1a1 1 0 0 0 1 1h4.09a1 1 0 0 0 1-1v-4.1a1 1 0 0 0 -1-1zm-13.31 7.16v-9.21h20.47v9.21a1 1 0 0 1 -1 1h-9.21v-5.12a3.07 3.07 0 0 0 -3.07-3.07h-2.09a3.06 3.06 0 0 0 -3.07 3.07v5.12h-1a1 1 0 0 1 -1-1m-1.53-12.28a1 1 0 0 1 .07-.39l2.83-7.8h2.54l-1.67 9.22h-2.75a1 1 0 0 1 -1-1m7.49-8.19h3.25v9.22h-4.93zm5.3 0h3.26l1.67 9.22h-4.93zm5.31 0h2.54l2.82 7.8a1 1 0 0 1 -.55 1.34 1.09 1.09 0 0 1 -.39.08h-2.75zm-16.57-2-3.34 9.05a3.06 3.06 0 0 0 1.3 3.84v9.62a3.06 3.06 0 0 0 3.07 3.07h3.07v-7.16a1 1 0 0 1 1-1h2.05a1 1 0 0 1 1 1v7.16h11.2a3.07 3.07 0 0 0 3.07-3.07v-9.74a3.07 3.07 0 0 0 1.3-3.84l-3.35-9.05z"/></clipPath><clipPath id="R"><path d="m147.88 98.09h38.38v35.82h-38.38z"/></clipPath><clipPath id="S"><path d="m153 103.21h28.15v25.59h-28.15z"/></clipPath><clipPath id="T"><path d="m163.77 174h11.85v-2.15h-11.85zm0-4.31h11.85v-2.15h-11.85zm0-4.31h11.85v-2.15h-11.85zm0-4.3h11.85v-2.16h-11.85zm-8.62 16.15v-5.38h3.23v4.15a5.49 5.49 0 0 1 -.27 1.7l-.2.6h-1.68a1.09 1.09 0 0 1 -1.08-1.08m5.39-.19v-21.34h18.31v22.62h-18.42a7.78 7.78 0 0 0 .11-1.27m0-23.5a2.16 2.16 0 0 0 -2.16 2.15v14h-5.38v7.54a3.23 3.23 0 0 0 3.23 3.23h22.62a2.15 2.15 0 0 0 2.15-2.15v-22.62a2.15 2.15 0 0 0 -2.15-2.15z"/></clipPath><clipPath id="U"><path d="m147.61 148.15h38.77v37.69h-38.77z"/></clipPath><clipPath id="V"><path d="m153 153.54h28v26.92h-28z"/></clipPath><clipPath id="W"><path d="m211.92 27.12 1.87.88 1.91-4.1-1.87-.9zm-4.57-1.72 1.58 1.32 3.73-4.45-1.58-1.27zm-2.11-4.58 1.19 1.7 3.7-2.59-1.19-1.69zm14.59-8.7a1.27 1.27 0 0 1 -.4-1.37 1.29 1.29 0 1 1 2.22 1.25 1.28 1.28 0 0 1 -1 .47 1.26 1.26 0 0 1 -.83-.31m-1.73-3.16a3.35 3.35 0 1 0 2.57-1.2 3.36 3.36 0 0 0 -2.57 1.2m2.5 11.27c.92-.7 1.76-1.4 2.55-2.11a5.12 5.12 0 0 1 0 1.92 6.93 6.93 0 0 1 -1.83 2.4 8.17 8.17 0 0 0 -.73-2.21m-11.16-7.77a6.9 6.9 0 0 1 2-2.21 5 5 0 0 1 1.88-.29c-.55.89-1.09 1.84-1.62 2.86a8.24 8.24 0 0 0 -2.25-.33m3.92 1.61q3.21-6.35 7.12-9.19c.39-.29.79-.55 1.19-.79a15 15 0 0 0 2.59 2.8 15 15 0 0 0 3.16 2c-.17.43-.36.86-.57 1.3q-2.1 4.29-7.82 8.6zm12.23-8.77a12.27 12.27 0 0 1 -2.05-2.15 10.93 10.93 0 0 1 4.47-.89 11 11 0 0 1 0 4.61 12.63 12.63 0 0 1 -2.42-1.62m-6.33-2.09a21.3 21.3 0 0 0 -4.57 4.69 8.73 8.73 0 0 0 -4 .45c-1.15.5-2.43 2-4 4.66l-1 1.71 2-.14a11.2 11.2 0 0 1 3.3.12l1.67 1.4-.79 1.44a.66.66 0 0 0 .16.81l3.04 2.63a.63.63 0 0 0 .81 0l1.29-1 1.7 1.44a11 11 0 0 1 .7 3.23l.2 2 1.51-1.33c2.32-2 3.6-3.56 3.89-4.78a8.82 8.82 0 0 0 -.27-4.1 21.16 21.16 0 0 0 3.8-5.29 14 14 0 0 0 1.18-10.06l-.19-.71-.68-.07c-.42 0-.85-.07-1.27-.07a14.21 14.21 0 0 0 -8.45 3"/></clipPath><clipPath id="X"><path d="m199.91-5.04h36.03v38.68h-36.03z"/></clipPath><clipPath id="Y"><path d="m205.21-.27h25.96v28.61h-25.96z"/></clipPath><clipPath id="Z"><path d="m213.32 68.5a3.92 3.92 0 0 1 .31-1.51 8.42 8.42 0 0 0 7.28-4h.15c4.37 0 7.74 2.58 7.74 5.5a6.85 6.85 0 0 1 -.46 1.89l-.22.64.62 1.8-1.74-.55-.73.3a14.89 14.89 0 0 1 -5.21 1.43c-4.36 0-7.74-2.58-7.74-5.5m-5.57-5.72-.22-.61a6 6 0 0 1 -.43-1.67c0-2.39 2.68-4.5 6.19-4.5s6.19 2.11 6.19 4.5-2.69 4.5-6.19 4.5a12.25 12.25 0 0 1 -3.93-1l-.85-.34-1.2.57zm-2.75-2.28a7.41 7.41 0 0 0 .55 2.33l-1.55 5.17 4.59-2.16a20.48 20.48 0 0 0 2.93.93 5.84 5.84 0 0 0 -.26 1.73c0 4.14 4.39 7.5 9.8 7.5a16.61 16.61 0 0 0 6-1.59l4.94 1.59-1.71-5a8.25 8.25 0 0 0 .58-2.53c0-4-4.15-7.31-9.35-7.49a4.36 4.36 0 0 0 0-.51c0-3.59-3.7-6.5-8.26-6.5s-8.26 2.94-8.26 6.53"/></clipPath><clipPath id="aa"><path d="m199 49h38v32.5h-38z"/></clipPath><clipPath id="ab"><path d="m204 54h28v22.5h-28z"/></clipPath><clipPath id="ac"><path d="m216.93 111.75 3.24 3.25h-16.17v2h16.17l-3.24 3.24 1.41 1.41 5.66-5.65-5.66-5.66zm-.93-9.75a4 4 0 0 0 -4 4v6h2v-6a2 2 0 0 1 2-2h12a2 2 0 0 1 2 2v20a2 2 0 0 1 -2 2h-12a2 2 0 0 1 -2-2v-6h-2v6a4 4 0 0 0 4 4h12a4 4 0 0 0 4-4v-20a4 4 0 0 0 -4-4z"/></clipPath><clipPath id="ad"><path d="m198.5 97h38.5v38h-38.5z"/></clipPath><clipPath id="ae"><path d="m204 102h28v28h-28z"/></clipPath><clipPath id="af"><path d="m216 171a2 2 0 1 1 2 2 2 2 0 0 1 -2-2m-2 0a4 4 0 0 0 3 3.87v2.13h2v-2.13a4 4 0 1 0 -5-3.87m-7 6v-11a2 2 0 0 1 2-2h18a2 2 0 0 1 2 2v11a2 2 0 0 1 -2 2h-18a2 2 0 0 1 -2-2m3-16h2a6 6 0 0 1 12 0v1h-15a4 4 0 0 0 -4 4v11a4 4 0 0 0 4 4h18a4 4 0 0 0 4-4v-11a4 4 0 0 0 -4-4h-1v-1a8 8 0 0 0 -16 0"/></clipPath><clipPath id="ag"><path d="m200 148h36v38h-36z"/></clipPath><clipPath id="ah"><path d="m205 153h26v28h-26z"/></clipPath><clipPath id="ai"><path d="m277.13 12.18.76 2 5.11-2-.76-2zm-3.59-3 1.4 1.61 4.59-4-1.4-1.61zm-8.32 13.76 4.19-2 .72 1.55-4.19 2zm-8.06-1.94 9-13.58 7.84 9.1-10 4.83-1.33.63-3.29 1.58zm6.5-16.56 1.22 1.4-9.65 14.54a1.22 1.22 0 0 0 .09 1.48l2.94 3.38a1.2 1.2 0 0 0 1.44.3l3.77-1.81 1.53 3.3 7.72-3.61-1.57-3.38 4.26-2.04 1 1.12 1.46-1.28-12.74-14.65zm6.34 1.3 1.86 1 2.61-4.74-1.86-1z"/></clipPath><clipPath id="aj"><path d="m250-4.51h38.03v37.03h-38.03z"/></clipPath><clipPath id="ak"><path d="m255 .49h28.02v27.02h-28.02z"/></clipPath><clipPath id="al"><path d="m255.67 79h27.27v-2h-27.27zm10.1-4h17.17v-2h-17.17zm6.06-4h11.11v-2h-11.11zm-13.52-1 12.46-12.45 1.43 1.42-12.46 12.34-1.9.48zm13.89-14 2.14-2.14 1.43 1.42-2.14 2.15zm-15.71 12.85-1.43 5.71 5.71-1.43 17.85-17.85-4.28-4.28z"/></clipPath><clipPath id="am"><path d="m249.61 45.68h38.37v38.88h-38.37z"/></clipPath><clipPath id="an"><path d="m255 116 5.66 5.65 1.41-1.41-3.24-3.24h16.17v-2h-16.18l3.25-3.25-1.41-1.41zm14-14a4 4 0 0 0 -4 4v6h2v-6a2 2 0 0 1 2-2h10a2 2 0 0 1 2 2v20a2 2 0 0 1 -2 2h-10a2 2 0 0 1 -2-2v-6h-2v6a4 4 0 0 0 4 4h10a4 4 0 0 0 4-4v-20a4 4 0 0 0 -4-4z"/></clipPath><clipPath id="ao"><path d="m250 97h38v38h-38z"/></clipPath><clipPath id="ap"><path d="m255 102h28v28h-28z"/></clipPath><clipPath id="aq"><path d="m269 170c2.78 0 4.65 2.3 5.58 7.63a12 12 0 0 1 -11.16 0v.07c.93-5.38 2.8-7.7 5.59-7.7m-3-5a3 3 0 1 1 3 3 3 3 0 0 1 -3-3m-9 2a12 12 0 1 1 19.39 9.46c-.8-3.85-2.19-6.39-4.2-7.61a5 5 0 1 0 -6.38 0c-2 1.22-3.4 3.76-4.2 7.61a12 12 0 0 1 -4.62-9.46m-2 0a14 14 0 1 0 14-14 14 14 0 0 0 -14 14"/></clipPath><clipPath id="ar"><path d="m250 148h38v38h-38z"/></clipPath><clipPath id="as"><path d="m255 153h28v28h-28z"/></clipPath><clipPath id="at"><path d="m314.14 11.73 1.25 1.67 3.19-2.4 2.09 4.2 5.19-3.9-1.25-1.68-3.19 2.38-2.09-4.19zm1.67 10.52v-1.25h8.38v1.3c0 1.59-1.29 1.84-2.89 1.84h-2.6c-1.6 0-2.89-.25-2.89-1.84m-1-5.47c-2.15-2.51-3.19-4.63-3.19-6.31a8.38 8.38 0 1 1 16.76 0c0 1.68-1 3.8-3.19 6.31a4.23 4.23 0 0 0 -.95 2.07h-8.48a4.23 4.23 0 0 0 -.95-2.07m5.05-16.83a10.46 10.46 0 0 0 -10.33 10.47c0 2.27 1.25 4.81 3.69 7.67a2.11 2.11 0 0 1 .5 1.36v2.75a3.67 3.67 0 0 0 3.16 3.75.68.68 0 0 0 0 .2v.64a1.14 1.14 0 0 0 .05.33 1.06 1.06 0 0 0 1.33.67l1.76-.59 1.76.59a1.26 1.26 0 0 0 .33.05 1 1 0 0 0 1.05-1.05v-.64a.68.68 0 0 0 0-.2 3.67 3.67 0 0 0 3.16-3.73v-2.77a2.11 2.11 0 0 1 .5-1.36c2.44-2.86 3.69-5.4 3.69-7.67a10.46 10.46 0 0 0 -10.37-10.47z"/></clipPath><clipPath id="au"><path d="m304.29-5.24h31.42v38.75h-31.42z"/></clipPath><clipPath id="av"><path d="m309.53 0h20.95v28.28h-20.95z"/></clipPath><clipPath id="aw"><path d="m315.12 64a1.09 1.09 0 0 0 1.08 1.08 1 1 0 0 0 1.08-1.08 1.08 1.08 0 1 0 -2.16 0m7.64 0a1 1 0 0 0 1.08 1.08 1.08 1.08 0 1 0 -1.08-1.08m-3.2 8.79.11-.16.24-.39a.08.08 0 0 1 .14 0l.23.38.28.39.38.54a.69.69 0 0 0 -.47 0 .6.6 0 0 0 -.38.38c-.06.11-.13.18-.2.18s-.16-.08-.21-.19a.69.69 0 0 0 -.63-.35c.19-.26.36-.52.53-.78m-1-4.84c0-.18.56-.56 1.46-.62s1.39.36 1.42.63a6.18 6.18 0 0 1 -1.46 1.26 7.21 7.21 0 0 1 -1.46-1.22m-10.3.37c-.57-.53-.56-1.82.08-3.51a18.76 18.76 0 0 1 3.8-5.8 17 17 0 0 1 1.69-1.62 17.36 17.36 0 0 1 2-1.28 1.29 1.29 0 0 1 .77-.2h6.83a2.76 2.76 0 0 1 1 .29h.1a8.7 8.7 0 0 1 1.66 1.1 11.81 11.81 0 0 1 1.69 1.65c2.66 2.85 4.39 6.15 4.31 8.15a1.59 1.59 0 0 1 -.45 1.16 2.16 2.16 0 0 1 -1.92.25 1 1 0 0 0 -.84.14.69.69 0 0 0 -.13.11 24.22 24.22 0 0 0 -.71-3.74 1.1 1.1 0 0 0 -1.07-.74h-.17a1.11 1.11 0 0 0 -.73 1.07v.13a31.58 31.58 0 0 1 .79 4.55 3.74 3.74 0 0 1 -3.74 3.56c-.09 0-.38-.25-.71-.68a12.73 12.73 0 0 1 -.78-1.13l-.27-.44a2.1 2.1 0 0 0 -.58-.54 10.59 10.59 0 0 0 1.5-1.19 2.37 2.37 0 0 0 .88-1.61c0-1.34-1.48-2.37-3.25-2.37s-3.25 1-3.25 2.37a2.77 2.77 0 0 0 1.16 1.95 9.41 9.41 0 0 0 1.18.87 1.48 1.48 0 0 0 -.57.64l-.21.36c-.23.37-.39.61-.59.88a5.62 5.62 0 0 1 -.38.49 1.38 1.38 0 0 1 -.52.44 3.7 3.7 0 0 1 -3.73-3.74v-.13a27.89 27.89 0 0 1 .7-4.14 1 1 0 0 0 -.14-.85 1 1 0 0 0 -.66-.39 1 1 0 0 0 -.79.16 1 1 0 0 0 -.39.62 15.52 15.52 0 0 0 -.79 3.49.94.94 0 0 0 -.68-.07 4.94 4.94 0 0 1 -1 .12 1.35 1.35 0 0 1 -1.05-.37m8.43-14.18a3.88 3.88 0 0 0 -1.76.46 10.34 10.34 0 0 0 -2.25 1.43l-.42.37a15 15 0 0 0 -1.44 1.41c-2.99 3.13-4.84 6.54-4.84 9.13v.25a3.5 3.5 0 0 0 1 2.52 4 4 0 0 0 4 .69h.13a5.67 5.67 0 0 0 5.6 5.13 2.29 2.29 0 0 0 1.54-.64 1.93 1.93 0 0 0 1.61.94 1.91 1.91 0 0 0 1.7-1 2.31 2.31 0 0 0 1.61.71 5.6 5.6 0 0 0 5.62-5.28 1 1 0 0 0 .51.17 5.7 5.7 0 0 0 1.2.15 3.4 3.4 0 0 0 2.46-.88c1.13-1.09 1.3-3 .52-5.25a19.29 19.29 0 0 0 -4.3-6.7l-2-1.71-.24-.18a9.65 9.65 0 0 0 -1.8-1.13 3.4 3.4 0 0 0 -1.86-.55z"/></clipPath><clipPath id="ax"><path d="m301 49h38v32h-38z"/></clipPath><clipPath id="ay"><path d="m306 54h28v22h-28z"/></clipPath><clipPath id="az"><path d="m309.16 119.19h21.31v5.33h-21.31zm2.13-5.32h17v3.2h-17zm-3.16-3.2a1.54 1.54 0 0 1 0-.3l1.51-5h3.61l-.8 6.39h-3.25a1.07 1.07 0 0 1 -1.07-1.07m7.29-5.32h3.33v6.39h-4.13zm5.46 0h3.33l.8 6.39h-4.13zm5.46 0h3.66l1.5 5a1.08 1.08 0 0 1 -1 1.37h-3.29zm-18.24-2.13-2 6.53a2.89 2.89 0 0 0 -.14.92 3.19 3.19 0 0 0 3 3.19h.15v3.2h-1.01a1.06 1.06 0 0 0 -1.07 1.06v7.46a1.07 1.07 0 0 0 1.07 1.06h1.06v1.07a1.07 1.07 0 0 0 2.13 0v-1.07h17v1.07a1.07 1.07 0 0 0 2.13 0v-1.07h1.06a1.07 1.07 0 0 0 1.07-1.06v-7.46a1.06 1.06 0 0 0 -1.07-1.06h-1.06v-3.2a3.3 3.3 0 0 0 .88-.14 3.19 3.19 0 0 0 2.14-4l-2-6.53z"/></clipPath><clipPath id="aA"><path d="m300.64 97.89h38.35v36.22h-38.35z"/></clipPath><clipPath id="aB"><path d="m305.97 103.22h28.23v25.57h-28.23z"/></clipPath><clipPath id="aC"><path d="m308 167a2 2 0 1 1 2 2 2 2 0 0 1 -2-2m-2 0a4 4 0 1 0 4-4 4 4 0 0 0 -4 4m12 0a2 2 0 1 1 2 2 2 2 0 0 1 -2-2m-2 0a4 4 0 1 0 4-4 4 4 0 0 0 -4 4m12 0a2 2 0 1 1 2 2 2 2 0 0 1 -2-2m-2 0a4 4 0 1 0 4-4 4 4 0 0 0 -4 4"/></clipPath><clipPath id="aD"><path d="m301 153h38v28h-38z"/></clipPath><clipPath id="aE"><path d="m306 163h28v8h-28z"/></clipPath><clipPath id="aF"><path d="m366 14a5.35 5.35 0 0 1 5-5c1.58 0 3 1.92 3 5 0 3.64-.84 5-3 5a4.75 4.75 0 0 1 -5-5m-9 0a14 14 0 0 0 22 11.51l-1.62-1.33a12 12 0 1 1 -6.38-22.18c6.37 0 12 5.84 12 12 0 2.64-1.72 5-4 5-3 0-3-1-3-5v-.28c-.1-3.93-2.22-6.72-5-6.72a7.31 7.31 0 0 0 -7 7 6.75 6.75 0 0 0 7 7 4.3 4.3 0 0 0 3.77-1.7c.84 1.13 2 1.7 4.2 1.7 4 0 6-4 6-7 0-7-6.27-14-14-14a14 14 0 0 0 -14 14"/></clipPath><clipPath id="aG"><path d="m352-5h38v38h-38z"/></clipPath><clipPath id="aH"><path d="m357 0h28v28h-28z"/></clipPath><clipPath id="aI"><path d="m363 67h2v2h-2zm-2 4h6v-6h-6zm9-4h2v2h-2zm-2 4h6v-6h-6zm10-4.5-1.5-1.5-1.5 1.5 1.5 1.5-1.5 1.5 1.5 1.5 1.5-1.5 1.5 1.5 1.5-1.5-1.5-1.5 1.5-1.5-1.5-1.5zm1-7.31v-.19h4v16h-24v-16h4v.19a3 3 0 0 0 6 0v-.19h4v.19a3 3 0 0 0 6 0m-14 .19v-3.76c0-.34.45-.62 1-.62s1 .28 1 .62v3.76c0 .34-.45.62-1 .62s-1-.28-1-.62m10 0v-3.76c0-.34.45-.62 1-.62s1 .28 1 .62v3.76c0 .34-.45.62-1 .62s-1-.28-1-.62m-2-3.57v1.19h-4v-1.19a3 3 0 0 0 -6 0v1.19h-4a2 2 0 0 0 -2 2v16a2 2 0 0 0 2 2h24a2 2 0 0 0 2-2v-16a2 2 0 0 0 -2-2h-4v-1.19a3 3 0 0 0 -6 0"/></clipPath><clipPath id="aJ"><path d="m352 48h38v34h-38z"/></clipPath><clipPath id="aK"><path d="m357 53h28v24h-28z"/></clipPath><clipPath id="aL"><path d="m378.19 115.11h.11c2.37 1.32 3.94 5 4.59 11.47h-13.69c.65-6.47 2.22-10.15 4.6-11.47a6 6 0 0 0 2.25.44 6.11 6.11 0 0 0 2.14-.39m-19.19 1.37 5-3.58 5 3.58v2l-1 5h-1v-4a1 1 0 0 0 -1-1h-4a1 1 0 0 0 -1 1v4h-2zm13-7a4 4 0 1 1 4 4 4 4 0 0 1 -4-4m-2 0a6 6 0 0 0 1.91 4.4 7.51 7.51 0 0 0 -1.31 1.33l-6-4.3a1 1 0 0 0 -1.17 0l-6 4.3a1 1 0 0 0 -.42.81v8.51a1 1 0 0 0 1 1h4a1 1 0 0 0 1-1v-4h2v4a1 1 0 0 0 1 1h1.27l-.09.8v.21a2 2 0 0 0 2 2h13.89a2 2 0 0 0 1.8-2.2q-1-9.45-4.74-12.44a6 6 0 1 0 -10.12-4.4"/></clipPath><clipPath id="aM"><path d="m351.49 98.46h38.59v35.59h-38.59z"/></clipPath><clipPath id="aN"><path d="m357 103.47h28.07v25.56h-28.07z"/></clipPath><clipPath id="aO"><path d="m417 7.62 5-2.5 5 2.5v6.38h-2v-3a2 2 0 0 0 -2-2h-2a2 2 0 0 0 -2 2v3h-2zm4.1-4.29-5 2.5a2 2 0 0 0 -1.1 1.79v6.38a2 2 0 0 0 2 2h2a2 2 0 0 0 2-2v-3h2v3a2 2 0 0 0 2 2h2a2 2 0 0 0 2-2v-6.38a2 2 0 0 0 -1.1-1.79l-5-2.5a2 2 0 0 0 -.89-.21 2 2 0 0 0 -.9.21m-8.11 7.67a9 9 0 0 1 18 0c0 3.11-3 7.92-9 14.15-6-6.23-9-11-9-14.15m-2 0q0 6.08 11 17 11-10.92 11-17a11 11 0 0 0 -22 0"/></clipPath><clipPath id="aP"><path d="m406-5h32v38h-32z"/></clipPath><clipPath id="aQ"><path d="m411 0h22v28h-22z"/></clipPath><clipPath id="aR"><path d="m418.5 64.5v2.5h-2.5v2h2.5v2.5h2v-2.5h2.5v-2h-2.5v-2.5zm-8.5 9v-11a1 1 0 0 1 1-1h17a1 1 0 0 1 1 1v11a1 1 0 0 1 -1 1h-17a1 1 0 0 1 -1-1m5-17a1 1 0 0 1 1-1h17a1 1 0 0 1 1 1v11a1 1 0 0 1 -1 1h-2v-6a3 3 0 0 0 -3-3h-13zm1-3a3 3 0 0 0 -3 3v3h-2a3 3 0 0 0 -3 3v11a3 3 0 0 0 3 3h17a3 3 0 0 0 3-3v-3h2a3 3 0 0 0 3-3v-11a3 3 0 0 0 -3-3z"/></clipPath><clipPath id="aS"><path d="m403 48.5h38v33h-38z"/></clipPath><clipPath id="aT"><path d="m408 53.5h28v23h-28z"/></clipPath><clipPath id="aU"><path d="m420.83 126.5h2.34a1.17 1.17 0 0 1 -2.34 0m-7-4.57 1.17-.67v-7.59a7.48 7.48 0 0 1 4.43-6.5l1.23-.51v-1.16c0-1.17 1.34-1.17 1.35-1.17s1.38.07 1.38 1.17v1.14l1.3.44c2.7.93 4.31 3.37 4.31 6.59v7.59l1.17.67a4.61 4.61 0 0 1 1.88 2.24h-20.05a4.61 4.61 0 0 1 1.88-2.24m4.7-16.92a9.84 9.84 0 0 0 -5.86 8.66v6.24a7.51 7.51 0 0 0 -3.5 6.59h9.33a3.49 3.49 0 0 0 3.42 3.5h.16a3.5 3.5 0 0 0 3.42-3.5h9.33a7.51 7.51 0 0 0 -3.5-6.59v-6.24c0-4.12-2.15-7.52-5.88-8.79a3.51 3.51 0 0 0 -6.92.13"/></clipPath><clipPath id="aV"><path d="m403.33 96.17h37.33v39.67h-37.33z"/></clipPath><clipPath id="aW"><path d="m409.17 102h25.67v28h-25.67z"/></clipPath><clipPath id="aX"><path d="m472 7v6h-6v2h6v6h2v-6h6v-2h-6v-6zm-11 7a12 12 0 1 1 12 12 12 12 0 0 1 -12-12m-2 0a14 14 0 1 0 14-14 14 14 0 0 0 -14 14"/></clipPath><clipPath id="aY"><path d="m454-5h38v38h-38z"/></clipPath><clipPath id="aZ"><path d="m459 0h28v28h-28z"/></clipPath><clipPath id="a0"><path d="m462.08 65.48c.55-1.1 1-1.56 1.19-1.56h1.08c.18 0 .64.46 1.19 1.56a6.94 6.94 0 0 1 .44 1.11 3.06 3.06 0 0 1 .12.5 22 22 0 0 0 -.56 3.29h-4.39a16.61 16.61 0 0 1 .93-4.9m17.83 1.52a2.94 2.94 0 0 1 .11-.45 6.94 6.94 0 0 1 .44-1.11c.55-1.1 1-1.56 1.19-1.56h1.08c.18 0 .64.46 1.19 1.56a16.61 16.61 0 0 1 .93 4.9h-4.31a19.64 19.64 0 0 0 -.63-3.34m-4.72-3.58.16-.08a3.71 3.71 0 0 1 .75.86 21.7 21.7 0 0 1 1.33 2.35c.91 1.68 1.28 5.8 1.07 8.1h-11c-.11-2.53.24-6.67 1-8.1l.51-1 .46-.81a4.71 4.71 0 0 1 1.18-1.42 5.29 5.29 0 0 0 2.28.51 5.35 5.35 0 0 0 2.2-.46m-13-3.3a1.61 1.61 0 1 1 1.61 1.61 1.61 1.61 0 0 1 -1.61-1.61m18.38 0a1.61 1.61 0 1 1 1.61 1.61 1.61 1.61 0 0 1 -1.61-1.61m-10.81-1.62a3.23 3.23 0 1 1 3.3 3.32 3.23 3.23 0 0 1 -3.22-3.23m-2.16 0a5.33 5.33 0 0 0 1.33 3.54 8.08 8.08 0 0 0 -1.25 1.64l-.34.58a7.27 7.27 0 0 0 -.93-1.42 3.77 3.77 0 1 0 -6.43-2.72 3.76 3.76 0 0 0 1.16 2.71 7.83 7.83 0 0 0 -1 1.65 18.32 18.32 0 0 0 -1.16 5.72v.14a2.16 2.16 0 0 0 2.15 2.16h4.24v2.25a2.15 2.15 0 0 0 2.15 2h11a2.15 2.15 0 0 0 2.14-2 21.61 21.61 0 0 0 .06-2.34h4.15a2.16 2.16 0 0 0 2.11-2.07.66.66 0 0 0 0-.14 18 18 0 0 0 -1.15-5.72 7.49 7.49 0 0 0 -1-1.64 3.77 3.77 0 1 0 -6.38-2.72 3.76 3.76 0 0 0 1.16 2.71 8 8 0 0 0 -.94 1.44l-.06-.12c-.27-.47-.48-.83-.69-1.14a5.67 5.67 0 0 0 -.81-1 5.38 5.38 0 1 0 -9.47-3.51"/></clipPath><clipPath id="a1"><path d="m453.62 47.78h39.29v34.45h-39.29z"/></clipPath><clipPath id="a2"><path d="m459 53.16h28.53v23.68h-28.53z"/></clipPath><clipPath id="a3"><path d="m461.5 122.61 4.18-3.48 4.18 3.48v5.3h-8.36zm3.5-5.61-5.23 4.36a1 1 0 0 0 -.37.8v6.84a1 1 0 0 0 1 1.05h10.46a1 1 0 0 0 1-1.05v-6.83a1 1 0 0 0 -.37-.8l-5.14-4.37a1.06 1.06 0 0 0 -1.34 0m11.13 5.65 4.18-3.48 4.18 3.48v5.3h-8.36zm3.51-5.65-5.23 4.36a1 1 0 0 0 -.37.8v6.84a1 1 0 0 0 1 1.05h10.46a1 1 0 0 0 1-1.05v-6.83a1 1 0 0 0 -.37-.8l-5.14-4.37a1.06 1.06 0 0 0 -.67-.24 1 1 0 0 0 -.67.24m-10.83-9 4.18-3.48 4.18 3.48v5.3h-8.36zm3.51-5.65-5.23 4.36a1 1 0 0 0 -.38.8v6.83a1 1 0 0 0 1 1h10.46a1 1 0 0 0 1-1v-6.83a1 1 0 0 0 -.37-.8l-5.23-4.36a1.06 1.06 0 0 0 -.67-.24 1 1 0 0 0 -.67.24"/></clipPath><clipPath id="a4"><path d="m454.18 96.54h37.65v39.22h-37.65z"/></clipPath><clipPath id="a5"><path d="m459.41 101.76h27.19v28.76h-27.19z"/></clipPath><clipPath id="a6"><path d="m522.21 12.68.17-.07c1.12 1.16 2 3.69 2.47 7.72a1.08 1.08 0 0 1 -.94 1.2h-6.15a1.08 1.08 0 0 1 -1.08-1.08.57.57 0 0 1 0-.13c.49-4 1.35-6.56 2.46-7.72a4.37 4.37 0 0 0 1.62.31 4.31 4.31 0 0 0 1.44-.24m-3.6-4.07a2.16 2.16 0 1 1 2.16 2.16 2.16 2.16 0 0 1 -2.16-2.16m-2.15 0a4.33 4.33 0 0 0 .95 2.7c-1.43 1.67-2.36 4.62-2.86 8.76a2.55 2.55 0 0 0 0 .39 3.23 3.23 0 0 0 3.23 3.23h6 .39a3.24 3.24 0 0 0 2.82-3.6c-.5-4.14-1.43-7.09-2.86-8.76a4.31 4.31 0 1 0 -7.67-2.7m19.39-6.46v23.7h-22.61a1.09 1.09 0 0 1 -1.08-1.08v-21.55a1.08 1.08 0 0 1 1.08-1.08h16.16v23.7h2.15v-23.7h1.08v23.7h2.15v-23.7zm-22.72-2.16a3.23 3.23 0 0 0 -3.12 3.23v21.54a3.23 3.23 0 0 0 3.23 3.23h24.77v-28z"/></clipPath><clipPath id="a7"><path d="m504.61-5.39h38.77v38.77h-38.77z"/></clipPath><clipPath id="a8"><path d="m510 0h28v28h-28z"/></clipPath><clipPath id="a9"><path d="m514.45 68.14a3.21 3.21 0 0 0 1.3-.79l8.25-8.25 8.26 8.25a3.12 3.12 0 0 0 1.29.79v8.63h-5.31v-6.36a2.12 2.12 0 0 0 -2.12-2.13h-4.24a2.12 2.12 0 0 0 -2.12 2.13v6.36h-5.31zm-1.71-2.29a1.07 1.07 0 0 1 0-1.5l10.51-10.5a1.05 1.05 0 0 1 1.5 0l10.51 10.5a1.06 1.06 0 0 1 -1.5 1.5l-9-9a1.05 1.05 0 0 0 -1.5 0l-9 9a1 1 0 0 1 -.75.31 1.05 1.05 0 0 1 -.75-.31m9-13.51-10.52 10.51a3.19 3.19 0 0 0 0 4.5 3.07 3.07 0 0 0 1.09.71v8.71a2.12 2.12 0 0 0 2.12 2.13h5.31a2.12 2.12 0 0 0 2.12-2.13v-6.36h4.24v6.36a2.12 2.12 0 0 0 2.12 2.13h5.31a2.12 2.12 0 0 0 2.12-2.13v-8.71a3.07 3.07 0 0 0 1.09-.71 3.19 3.19 0 0 0 0-4.5l-10.51-10.51a3.19 3.19 0 0 0 -4.5 0"/></clipPath><clipPath id="ba"><path d="m504.9 46h38.2v38.2h-38.2z"/></clipPath><clipPath id="bb"><path d="m509.67 50.77h28.65v28.12h-28.65z"/></clipPath><clipPath id="bc"><path d="m529.36 120.34h3.24l2.55 7h-22.3l2.55-7h3.32l5.29 6zm-3.91-13.53a5 5 0 0 1 7.07 0 4.91 4.91 0 0 1 0 7.12q-1.72 1.84-8.46 9.41-6.64-7.57-8.44-9.44a4.81 4.81 0 0 1 0-7.09 5 5 0 0 1 7.07 0l1.41 1.41zm-1.45-1.42a7 7 0 0 0 -9.9 0 6.81 6.81 0 0 0 0 9.9c.57.59 1.5 1.6 2.8 3h-2.9l-4 11h28l-4-11h-2.84c1.3-1.45 2.23-2.46 2.77-3a6.9 6.9 0 0 0 0-9.9 7 7 0 0 0 -9.9 0"/></clipPath><clipPath id="bd"><path d="m505 98.34h38v36h-38z"/></clipPath><clipPath id="be"><path d="m510 102.34h28v27h-28z"/></clipPath><clipPath id="bf"><path d="m570.52 13.55a1.07 1.07 0 1 0 1.07-1.07 1 1 0 0 0 -1.07 1.07m6.58 0a1.07 1.07 0 1 0 1.07-1.07 1.08 1.08 0 0 0 -1.07 1.07m-4.45 8.23a2.23 2.23 0 1 1 2.22 2.22 2.22 2.22 0 0 1 -2.22-2.22m-.16-3.54c.25-.5 1.15-.75 2.39-.75s2.14.25 2.39.75a1.21 1.21 0 0 1 .16.9 3.7 3.7 0 0 0 -5 0 1.63 1.63 0 0 1 .08-.9m-6.09-7.16a8.9 8.9 0 0 1 7.08-6.26.66.66 0 0 0 .41.16c1.55.02 3.09 1.15 3.09 2.31a2 2 0 0 1 -2.12 1.71c-.58 0-1.48-.17-1.48-1a.55.55 0 0 1 .33-.49.51.51 0 0 1 .66 0 .72.72 0 0 0 .73-1.24 2.23 2.23 0 0 0 -2.14.09 2.19 2.19 0 0 0 -1.07 1.73c0 1.4 1.24 2.47 3 2.47a3.38 3.38 0 0 0 3.54-3.13 3.5 3.5 0 0 0 -.82-2.14 8.84 8.84 0 0 1 5.76 5.92l.25.82.74-.33a1.69 1.69 0 0 1 .91-.16 2.21 2.21 0 0 1 2.22 2.22 2.12 2.12 0 0 1 -2.22 2.06 2.54 2.54 0 0 1 -.83-.17l-.74-.32-.25.82a8.84 8.84 0 0 1 -4.77 5.51 3 3 0 0 0 -.17-.9 3.47 3.47 0 0 0 .17-3.21c-.58-1-1.81-1.48-3.7-1.48s-3.13.49-3.7 1.48a3.77 3.77 0 0 0 .16 3.21c-.08.32-.16.57-.25.9a8.84 8.84 0 0 1 -4.77-5.51l-.25-.82-.74.32a2.27 2.27 0 0 1 -2.88-1.23 2.18 2.18 0 0 1 1.15-2.88 2.09 2.09 0 0 1 1.73 0l.74.33zm4.92-7.08a10.3 10.3 0 0 0 -6 6 3.68 3.68 0 1 0 -1.34 7.25 3.61 3.61 0 0 0 1.31 0 10.46 10.46 0 0 0 6.34 6.17 3.71 3.71 0 0 0 4.93 1.73 3.91 3.91 0 0 0 1.73-1.73 10.46 10.46 0 0 0 6.34-6.17 3.68 3.68 0 1 0 1.35-7.25 2.82 2.82 0 0 0 -.73-.08 1.84 1.84 0 0 0 -.66.08 10.27 10.27 0 0 0 -9.61-6.69 9.91 9.91 0 0 0 -3.64.69"/></clipPath><clipPath id="bg"><path d="m557.11-.78h35.78v30.33h-35.78z"/></clipPath><clipPath id="bh"><path d="m561 1.55h28v24.89h-28z"/></clipPath><clipPath id="bi"><path d="m573 59a2 2 0 1 1 2 2 2 2 0 0 1 -2-2m-2 0a4 4 0 1 0 4-4 4 4 0 0 0 -4 4m7.56 9h5l2.66 8h-22.44l2.66-8h5q1.47 2.67 3.56 6 2.09-3.33 3.56-6m-8.56-9a5 5 0 0 1 10 0c0 1.77-1.67 5.6-5 11.18-3.33-5.58-5-9.41-5-11.18m-2 0q0 2.27 2.39 7h-5.39l-4 12h28l-4-12h-5.39q2.39-4.74 2.39-7a7 7 0 0 0 -14 0"/></clipPath><clipPath id="bj"><path d="m556 47h38v36h-38z"/></clipPath><clipPath id="bk"><path d="m561 52h28v26h-28z"/></clipPath><clipPath id="bl"><path d="m571 116a4 4 0 1 1 4 4 4 4 0 0 1 -4-4m-2 0a6 6 0 1 0 6-6 6 6 0 0 0 -6 6m-5.43 0c4-4.72 7.79-7 11.43-7s7.46 2.28 11.43 7c-4 4.72-7.79 7-11.43 7s-7.46-2.28-11.43-7m-2.57 0q7 9 14 9t14-9q-7-9-14-9t-14 9"/></clipPath><clipPath id="bm"><path d="m556 102h38v28h-38z"/></clipPath><clipPath id="bn"><path d="m561 107h28v18h-28z"/></clipPath><g fill="#b2ca06"><path d="m11 12a3 3 0 1 1 3 3 3 3 0 0 1 -3-3m-2 0a1.93 1.93 0 0 0 0 .24v.08s0 .1 0 .15v.11s0 .09 0 .13v.08.15a.36.36 0 0 0 0 .1v.12a3 3 0 0 0 .11.4v.13.06c0 .13.1.25.16.37v.07l.18.34.07.11a3.71 3.71 0 0 0 .48.36l.08.11v.05l.07.08v.06c-1.85 1.7-3.15 3.7-4.15 7.7h2.48c.86-3.4 2-5.48 3.52-6.42a5 5 0 0 0 4 0c1.47.94 2.66 3 3.52 6.42h2.48c-1-4-2.3-6-4.29-7.65l.05-.06.07-.08.08-.09.09-.12.22-.33.07-.12.18-.33v-.07c.06-.12.11-.24.16-.37v-.06-.13a3 3 0 0 0 .11-.4.53.53 0 0 0 0-.12.36.36 0 0 0 0-.1v-.15s0 0 0-.08 0-.09 0-.13 0-.07 0-.11 0-.1 0-.15v-.08a1.93 1.93 0 0 0 .26-.27 5 5 0 0 0 -10 0m-7-7h24v18h-24zm-2 20h28v-22h-28z"/><g clip-path="url(#a)"><path d="m-5-2h38v32h-38z"/><g clip-path="url(#b)"><path d="m0 3h28v22h-28z"/><g clip-path="url(#c)"><path d="m-5-2h38v32h-38z"/><path d="m-5-5h38v38h-38z"/></g></g></g><path d="m13 72a1 1 0 1 1 1 1 1 1 0 0 1 -1-1m-2 0a3 3 0 1 0 3-3 3 3 0 0 0 -3 3m2-14h2v7h-2zm-1-2a1 1 0 0 0 -1 1v9a1 1 0 0 0 1 1h4a1 1 0 0 0 1-1v-9a1 1 0 0 0 -1-1zm-10 9a12 12 0 1 1 12 12 12 12 0 0 1 -12-12m-2 0a14 14 0 1 0 14-14 14 14 0 0 0 -14 14"/><g clip-path="url(#d)"><path d="m-5 46h38v38h-38z"/><g clip-path="url(#e)"><path d="m0 51h28v28h-28z"/><g clip-path="url(#f)"><path d="m-5 46h38v38h-38z"/><path d="m-5 46h38v38h-38z"/></g></g></g><path d="m16.28 118.47.95-1 7.09 7.09h-20.64l7.09-7.09.94 1a3.25 3.25 0 0 0 2.29 1 3.21 3.21 0 0 0 2.28-1m2.47-2.47 7.1-7.1v14.23zm-16.64-7.14 7.14 7.14-7.14 7.13zm11.13 8.08-9.56-9.56h20.64l-9.56 9.56a1.06 1.06 0 0 1 -1.52 0m-9.88-11.71a3.49 3.49 0 0 0 -3.36 3.59v14.36a3.49 3.49 0 0 0 3.36 3.59h21.28a3.48 3.48 0 0 0 3.36-3.59v-14.36a3.48 3.48 0 0 0 -3.36-3.59z"/><g clip-path="url(#g)"><path d="m-5.39 99.85h38.77v32.31h-38.77z"/><g clip-path="url(#h)"><path d="m0 105.23h28v21.54h-28z"/><g clip-path="url(#i)"><path d="m-5.39 99.85h38.77v32.31h-38.77z"/><path d="m-6.46 95.54h40.92v40.92h-40.92z"/></g></g></g><path d="m8 175h10v-2h-10zm0-4h7v-2h-7zm0-4h12v-2h-12zm12-6-.5-3h1.5c2.21 0 3 .79 3 3v15c0 2.21-.79 3-3 3h-14c-2.21 0-3-.79-3-3v-15c0-2.21.79-3 3-3h1.5l-.5 3zm-9.3-4h1.54l1-2h1.52l1 2h1.55l.33 2h-7.28zm1.3-4-1 2h-2l-.17 1h-1.83c-3.31 0-5 1.69-5 5v15c0 3.31 1.69 5 5 5h14c3.31 0 5-1.69 5-5v-15c0-3.31-1.69-5-5-5h-1.83l-.17-1h-2l-1-2z"/><g clip-path="url(#j)"><path d="m-3 148h34v38h-34z"/><g clip-path="url(#k)"><path d="m2 153h24v28h-24z"/><g clip-path="url(#l)"><path d="m-3 148h34v38h-34z"/><path d="m-5 148h38v38h-38z"/></g></g></g><path d="m59.82 24.37a2.05 2.05 0 0 1 -1.4-1.31 5 5 0 0 1 -.25-1.81c0-3.2 3.55-7 7-7s7.05 3.84 7.05 7a2 2 0 0 1 -.77 1.75 5.67 5.67 0 0 1 -2.75.4c-.48 0-.93 0-1.69-.06-1.11-.06-1.35-.07-1.8-.07a5.83 5.83 0 0 0 -2.63.67l-.35.17a3.48 3.48 0 0 1 -1.48.46 3 3 0 0 1 -.93-.19m-6.55-11.5c-.6-1.64-.09-3.18.85-3.52s2.33.5 2.93 2.15.08 3.18-.86 3.52a1.33 1.33 0 0 1 -.45.08 3 3 0 0 1 -2.47-2.23m20 2.15c-.94-.34-1.46-1.88-.86-3.52s2-2.49 2.92-2.15 1.46 1.88.86 3.52a3 3 0 0 1 -2.48 2.23 1.27 1.27 0 0 1 -.44-.08m-10.37-3.11a3.69 3.69 0 0 0 2.32-2.82v-.2a3.89 3.89 0 0 0 2.68 3.1 3.27 3.27 0 0 0 2.34-.33 5.52 5.52 0 0 0 0 2.29 8.34 8.34 0 0 0 -5-1.8 9 9 0 0 0 -6.64 3.34 5.38 5.38 0 0 0 .34-4.68c0-.14-.11-.27-.17-.4a4.41 4.41 0 0 0 3.23 1.65 2.92 2.92 0 0 0 .93-.15m-3.65-4.64c-.64-1.95-.08-3.67.82-4s2.37.77 3 2.73.08 3.68-.82 4a1.13 1.13 0 0 1 -.32.05c-.89 0-2.12-1-2.68-2.78m9.11 2.8c-.92-.23-1.6-1.91-1.1-3.91s1.88-3.17 2.8-2.93 1.6 1.91 1.1 3.91c-.46 1.83-1.66 3-2.56 3a.88.88 0 0 1 -.24 0m-3.06-4.46c0 .17-.07.34-.1.51q-.09-.39-.21-.78c-1-2.91-3.42-4.71-5.54-4s-3.06 3.58-2.12 6.48a6.37 6.37 0 0 0 .36.89 4 4 0 0 0 -4.29-1.32 4.06 4.06 0 0 0 -2.43 4v.15a6.24 6.24 0 0 0 .37 2c1 2.61 3.42 4.11 5.51 3.35a3.08 3.08 0 0 0 1.18-.76 9 9 0 0 0 -1.9 5.09c0 1 0 4 3 5s4-1 6-1 5.82.57 7.46-.68a4 4 0 0 0 1.6-3.34 8.35 8.35 0 0 0 -1.22-4.28c2 .45 4.21-1 5.1-3.47 1-2.61 0-5.34-2.06-6.1a3.57 3.57 0 0 0 -2.87.24v-.08c.74-3-.41-5.8-2.56-6.34a3 3 0 0 0 -.73-.09c-1.93 0-3.86 1.85-4.52 4.49"/><g clip-path="url(#m)"><path d="m45.97-3.82h37.72v35.71h-37.72z"/><g clip-path="url(#n)"><path d="m51 .7h28.17v26.66h-28.17z"/><g clip-path="url(#o)"><path d="m45.97-3.82h37.48v35.41h-37.48z"/><path d="m45.97-5.84h38.23v38.23h-38.23z"/></g></g></g><path d="m61 63.63 4-3.33 4 3.33v5.07h-8zm3.36-5.4-5 4.17a1 1 0 0 0 -.36.77v6.53a1 1 0 0 0 1 1h10a1 1 0 0 0 1-1v-6.53a1 1 0 0 0 -.36-.77l-5-4.17a1 1 0 0 0 -1.28 0m-11.36 6.77a12 12 0 1 1 12 12 12 12 0 0 1 -12-12m-2 0a14 14 0 1 0 14-14 14 14 0 0 0 -14 14"/><g clip-path="url(#p)"><path d="m46 46h38v38h-38z"/><g clip-path="url(#q)"><path d="m51 51h28v28h-28z"/><g clip-path="url(#r)"><path d="m46 46h38v38h-38z"/><path d="m46 46h38v38h-38z"/></g></g></g><path d="m63.52 124.27v-7.21a.21.21 0 0 1 .21-.21h2.54a.21.21 0 0 1 .21.21v7.21a.21.21 0 0 1 -.21.21h-2.54a.21.21 0 0 1 -.21-.21m.21-9.12a1.91 1.91 0 0 0 -1.91 1.91v7.21a1.9 1.9 0 0 0 1.91 1.91h2.54a1.9 1.9 0 0 0 1.91-1.91v-7.21a1.91 1.91 0 0 0 -1.91-1.91zm-.21-5a1.48 1.48 0 1 1 1.48 1.5 1.49 1.49 0 0 1 -1.48-1.48m-1.7 0a3.18 3.18 0 1 0 3.18-3.17 3.18 3.18 0 0 0 -3.18 3.19m-9.12 5.81a12.3 12.3 0 1 1 12.3 12.3 12.3 12.3 0 0 1 -12.3-12.3m-1.7 0a14 14 0 1 0 14-14 14 14 0 0 0 -14 14"/><g clip-path="url(#s)"><path d="m46.72 97.72h36.56v36.56h-36.56z"/><g clip-path="url(#t)"><path d="m50.97 101.97h28.06v28.06h-28.06z"/><g clip-path="url(#u)"><path d="m46.75 97.75h36.5v36.5h-36.5z"/><path d="m44.6 95.6h40.81v40.81h-40.81z"/></g></g></g><path d="m61 168a1 1 0 0 0 0 2h10a1 1 0 0 0 0-2zm-2-5a1 1 0 0 0 0 2h10a1 1 0 0 0 0-2zm-6 3.5c0-5.75 5.33-10.5 12-10.5s12 4.75 12 10.5a14.51 14.51 0 0 1 -1.63 5.32l-.29.63 1.1 4.49-4.56-1.55-.65.23a19.86 19.86 0 0 1 -5.97 1.38c-6.67 0-12-4.75-12-10.5m-2 0c0 6.9 6.27 12.5 14 12.5a21.64 21.64 0 0 0 6.63-1.49l7.37 2.49-1.81-7.34a16 16 0 0 0 1.81-6.16c0-6.9-6.27-12.5-14-12.5s-14 5.6-14 12.5"/><g clip-path="url(#v)"><path d="m46 149h38v36h-38z"/><g clip-path="url(#w)"><path d="m51 154h28v26h-28z"/><g clip-path="url(#x)"><path d="m46 149h38v36h-38z"/><path d="m46 148h38v38h-38z"/></g></g></g><path d="m120.47 25.35a51.46 51.46 0 0 1 -8.79-7 52 52 0 0 1 -7-8.79 4.12 4.12 0 0 1 .57-5.12l2.1-2.11a1 1 0 0 1 1.46 0l4.37 4.37a1 1 0 0 1 0 1.46l-2.96 2.84a19.67 19.67 0 0 0 3.64 5.1 19.67 19.67 0 0 0 5.1 3.64l2.91-2.91a1 1 0 0 1 1.46 0l4.37 4.36a1 1 0 0 1 0 1.46l-2.11 2.1a4.1 4.1 0 0 1 -5.12.56m-12.47-25.31a3 3 0 0 0 -2.1.89l-2.11 2.11a6.13 6.13 0 0 0 -1.79 4.29v.06a6.15 6.15 0 0 0 1 3.26 53.63 53.63 0 0 0 7.31 9.13 53.6 53.6 0 0 0 9.12 7.3 6.13 6.13 0 0 0 7.62-.83l2.1-2.11a3 3 0 0 0 .85-2.1v-.08a3 3 0 0 0 -.89-2.1l-4.37-4.37a3 3 0 0 0 -4.28 0l-1.85 1.85a16.73 16.73 0 0 1 -5.91-5.91l1.85-1.85a3 3 0 0 0 0-4.28l-4.37-4.37a3 3 0 0 0 -2.1-.89z"/><g clip-path="url(#y)"><path d="m97-5h38.5v38.5h-38.5z"/><g clip-path="url(#z)"><path d="m102 0h28v28h-28z"/><g clip-path="url(#A)"><path d="m97-5h38v38h-38z"/><path d="m97-5h38v38h-38z"/></g></g></g><path d="m107.48 60.74h17v14.12l-8.48-4.73-8.52 4.73zm0-7.31h17v4.87h-17zm0-2.43a2.43 2.43 0 0 0 -2.48 2.43v25.57l11-6.09 11 6.09v-25.57a2.43 2.43 0 0 0 -2.48-2.43z"/><g clip-path="url(#B)"><path d="m98.96 44.3h34.09v40.78h-34.09z"/><g clip-path="url(#C)"><path d="m105.04 50.39h21.91v28.61h-21.91z"/><g clip-path="url(#D)"><path d="m98.96 44.91h34.09v40.17h-34.09z"/><path d="m95.3 43.7h41.39v41.39h-41.39z"/></g></g></g><path d="m105.11 108.75v3.1h-3.11v2.08h3.11v3.07h2.07v-3.11h3.11v-2.08h-3.11v-3.1zm18.06 9.25c0-.19.07-.33.1-.43a8 8 0 0 1 .43-1.07c.53-1.06 1-1.5 1.15-1.5h1c.17 0 .61.44 1.14 1.5a16.1 16.1 0 0 1 .9 4.72h-4.15a18.6 18.6 0 0 0 -.61-3.22m-4.54-3.45.15-.07a3.43 3.43 0 0 1 .72.83 20.58 20.58 0 0 1 1.29 2.26c.88 1.62 1.22 5.59 1 7.8h-10.49c-.11-2.44.23-6.42 1-7.8l.5-.91c.17-.32.31-.56.44-.78a4.63 4.63 0 0 1 1.13-1.37 5.07 5.07 0 0 0 2.2.49 5.16 5.16 0 0 0 2.12-.45m5.18-3.17a1.56 1.56 0 1 1 1.56 1.55 1.56 1.56 0 0 1 -1.56-1.55m-10.41-1.56a3.11 3.11 0 1 1 3.11 3.11 3.11 3.11 0 0 1 -3.11-3.11m-2.07 0a5.14 5.14 0 0 0 1.28 3.41 7.51 7.51 0 0 0 -1.21 1.58l-.48.85-.5.92c-1 1.75-1.36 6.1-1.23 8.89a2.07 2.07 0 0 0 2.07 2h10.55a2.08 2.08 0 0 0 2.07-1.88 20.35 20.35 0 0 0 .05-2.26h4a2.08 2.08 0 0 0 2.07-2.08.62.62 0 0 0 0-.13 17.61 17.61 0 0 0 -1.1-5.51 8.24 8.24 0 0 0 -1-1.59 3.63 3.63 0 1 0 -5 0 7.43 7.43 0 0 0 -.91 1.39l-.06-.12c-.26-.45-.46-.79-.66-1.1a6.73 6.73 0 0 0 -.78-1 5.13 5.13 0 0 0 1.25-3.37 5.19 5.19 0 0 0 -10.37 0"/><g clip-path="url(#E)"><path d="m96.82 99.42h38.87v33.17h-38.87z"/><g clip-path="url(#F)"><path d="m102 104.6h28.51v22.81h-28.51z"/><g clip-path="url(#G)"><path d="m96.82 99.42h38.37v33.17h-38.37z"/><path d="m96.82 96.31h39.39v39.39h-39.39z"/></g></g></g><path d="m111.91 167a4.09 4.09 0 1 1 4.09 4.09 4.09 4.09 0 0 1 -4.09-4.09m-2 0a6.14 6.14 0 1 0 6.14-6.14 6.14 6.14 0 0 0 -6.14 6.14m10.42-11.51c.31.11.61.24.92.38a4.5 4.5 0 0 0 -.08.9 5.12 5.12 0 0 0 5.11 5.12 5.29 5.29 0 0 0 .9-.08c.14.3.27.6.39.91a5.12 5.12 0 0 0 0 8.56c-.12.31-.25.62-.39.92a4.43 4.43 0 0 0 -.9-.08 5.11 5.11 0 0 0 -5.11 5.11 4.43 4.43 0 0 0 .08.9c-.31.14-.61.27-.92.39a5.12 5.12 0 0 0 -8.56 0c-.31-.12-.61-.25-.92-.39a4.43 4.43 0 0 0 .08-.9 5.11 5.11 0 0 0 -5.11-5.11 4.43 4.43 0 0 0 -.9.08c-.14-.3-.27-.61-.39-.92a5.12 5.12 0 0 0 0-8.56c.12-.31.25-.61.39-.91a5.29 5.29 0 0 0 .9.08 5.12 5.12 0 0 0 5.11-5.12 4.5 4.5 0 0 0 -.08-.9c.31-.14.61-.27.92-.38a5.13 5.13 0 0 0 8.56 0m-4.28.26a3.08 3.08 0 0 1 -3-2.75 14.21 14.21 0 0 0 -4.71 2 3 3 0 0 1 .6 1.81 3.08 3.08 0 0 1 -4.89 2.48 14.26 14.26 0 0 0 -2 4.7 3.07 3.07 0 0 1 0 6.1 14.41 14.41 0 0 0 2 4.71 3.07 3.07 0 0 1 4.89 2.47 3 3 0 0 1 -.6 1.82 14.35 14.35 0 0 0 4.7 1.95 3.07 3.07 0 0 1 6.1 0 14.35 14.35 0 0 0 4.7-1.95 3 3 0 0 1 -.6-1.82 3.07 3.07 0 0 1 4.89-2.47 14.41 14.41 0 0 0 1.95-4.71 3.07 3.07 0 0 1 0-6.1 14.26 14.26 0 0 0 -1.95-4.7 3.08 3.08 0 0 1 -4.89-2.48 3 3 0 0 1 .6-1.81 14.21 14.21 0 0 0 -4.71-2 3.08 3.08 0 0 1 -3 2.75"/><g clip-path="url(#H)"><path d="m96.56 147.56h38.88v38.88h-38.88z"/><g clip-path="url(#I)"><path d="m101.67 152.68h28.65v28.65h-28.65z"/><g clip-path="url(#J)"><path d="m96.88 147.89h38.23v38.23h-38.23z"/><path d="m96.56 147.56h38.89v38.88h-38.89z"/></g></g></g><path d="m169.16 11.57c2.68 1.41 5.06 5.53 6.16 13.23a1 1 0 0 1 -.78 1.18h-.2-14.83a1 1 0 0 1 -1-1 1.36 1.36 0 0 1 0-.2c1.09-7.66 3.45-11.77 6.11-13.21h.05a6 6 0 0 0 4.47 0m-6.22-5.57a4 4 0 1 1 4 4 4 4 0 0 1 -4-4m-2 0a6 6 0 0 0 1.89 4.37c-3 2.13-5.29 6.76-6.24 14 0 .2-.06.4-.06.6a3 3 0 0 0 3 3h14.83a3.05 3.05 0 0 0 .6-.06 3.09 3.09 0 0 0 2.34-3.54c-.95-7.27-3.29-11.9-6.25-14a6 6 0 1 0 -10.11-4.37"/><g clip-path="url(#K)"><path d="m151.42-5h31v38h-31z"/><g clip-path="url(#L)"><path d="m156.42 0h21.5v28h-21.5z"/><g clip-path="url(#M)"><path d="m151.51-5h30.79v38h-30.79z"/><path d="m147.92-5h38v38h-38z"/></g></g></g><path d="m165.83 70.35a2.3 2.3 0 0 1 2.34 0 6.53 6.53 0 0 1 -1.17 1 6.58 6.58 0 0 1 -1.17-1m-1.68 0c0 .81.95 1.66 1.62 2.15a1.86 1.86 0 0 1 -1.09.31.79.79 0 0 0 -.81.82.78.78 0 0 0 .81.81 3.65 3.65 0 0 0 2.49-.91 3.57 3.57 0 0 0 2.53.91.79.79 0 0 0 .82-.81 1 1 0 0 0 -1-.82 1.81 1.81 0 0 1 -1.09-.31c1.44-1 1.62-1.72 1.62-2.15 0-1.23-1.27-2.16-2.95-2.16s-2.94.93-2.94 2.16m-3.66-3.28a1.4 1.4 0 0 0 2.8 0 1.47 1.47 0 0 0 -1.4-1.4 1.4 1.4 0 0 0 -1.4 1.4m9.93 0a1.4 1.4 0 1 0 2.8 0 1.47 1.47 0 0 0 -1.4-1.4 1.4 1.4 0 0 0 -1.4 1.4m1.45-8.22c.88-.61 2.2-1.5 3.48-2.35l2.81-1.87v9.86a1.46 1.46 0 0 0 .08.4 17.74 17.74 0 0 1 .58 3.44c0 2.33-1.36 4.56-3.81 6.29a14.49 14.49 0 0 1 -8 2.56 14.27 14.27 0 0 1 -8-2.56c-2.42-1.73-3.76-4-3.76-6.29a20.52 20.52 0 0 1 .64-3.75v-9.83l1.57 1.08c1.57 1.07 3.51 2.39 4.74 3.25l.36.18.31-.16a14 14 0 0 1 8.17 0l.37.18zm7-7c-.25.13-.9.56-2.89 1.89-1.62 1.08-3.4 2.3-4.59 3.12a17.36 17.36 0 0 0 -8.65 0l-4.59-3.12c-2-1.37-2.68-1.79-2.92-1.91l-1.29-.8v12.97a15.86 15.86 0 0 0 -.77 4.2c0 3 1.59 5.76 4.47 7.85a16.35 16.35 0 0 0 9.14 3h.46a16.39 16.39 0 0 0 9.11-3c2.9-2.1 4.5-4.88 4.5-7.85a16.9 16.9 0 0 0 -.65-3.7c-.05-.21-.1-.38-.12-.48v-13.02z"/><g clip-path="url(#N)"><path d="m147.59 45.01h38.82v39.93h-38.82z"/><g clip-path="url(#O)"><path d="m153.14 50.56h27.73v28.84h-27.73z"/><g clip-path="url(#P)"><path d="m147.61 45.46h38.78v39.09h-38.78z"/><path d="m145.92 43.9h42.15v42.15h-42.15z"/></g></g></g><path d="m170.91 120.61h2.09v2h-2.05zm-1-2a1 1 0 0 0 -1 1v4.1a1 1 0 0 0 1 1h4.09a1 1 0 0 0 1-1v-4.1a1 1 0 0 0 -1-1zm-13.31 7.16v-9.21h20.47v9.21a1 1 0 0 1 -1 1h-9.21v-5.12a3.07 3.07 0 0 0 -3.07-3.07h-2.09a3.06 3.06 0 0 0 -3.07 3.07v5.12h-1a1 1 0 0 1 -1-1m-1.53-12.28a1 1 0 0 1 .07-.39l2.83-7.8h2.54l-1.67 9.22h-2.75a1 1 0 0 1 -1-1m7.49-8.19h3.25v9.22h-4.93zm5.3 0h3.26l1.67 9.22h-4.93zm5.31 0h2.54l2.82 7.8a1 1 0 0 1 -.55 1.34 1.09 1.09 0 0 1 -.39.08h-2.75zm-16.57-2-3.34 9.05a3.06 3.06 0 0 0 1.3 3.84v9.62a3.06 3.06 0 0 0 3.07 3.07h3.07v-7.16a1 1 0 0 1 1-1h2.05a1 1 0 0 1 1 1v7.16h11.2a3.07 3.07 0 0 0 3.07-3.07v-9.74a3.07 3.07 0 0 0 1.3-3.84l-3.35-9.05z"/><g clip-path="url(#Q)"><path d="m147.88 98.09h38.38v35.82h-38.38z"/><g clip-path="url(#R)"><path d="m153 103.21h28.15v25.59h-28.15z"/><g clip-path="url(#S)"><path d="m147.88 98.09h37.87v35.82h-37.87z"/><path d="m147.37 96.55h38.89v38.89h-38.89z"/></g></g></g><path d="m163.77 174h11.85v-2.15h-11.85zm0-4.31h11.85v-2.15h-11.85zm0-4.31h11.85v-2.15h-11.85zm0-4.3h11.85v-2.16h-11.85zm-8.62 16.15v-5.38h3.23v4.15a5.49 5.49 0 0 1 -.27 1.7l-.2.6h-1.68a1.09 1.09 0 0 1 -1.08-1.08m5.39-.19v-21.34h18.31v22.62h-18.42a7.78 7.78 0 0 0 .11-1.27m0-23.5a2.16 2.16 0 0 0 -2.16 2.15v14h-5.38v7.54a3.23 3.23 0 0 0 3.23 3.23h22.62a2.15 2.15 0 0 0 2.15-2.15v-22.62a2.15 2.15 0 0 0 -2.15-2.15z"/><g clip-path="url(#T)"><path d="m147.61 148.15h38.77v37.69h-38.77z"/><g clip-path="url(#U)"><path d="m153 153.54h28v26.92h-28z"/><g clip-path="url(#V)"><path d="m147.61 148.15h38.77v37.69h-38.77z"/><path d="m146.54 146h40.92v40.92h-40.92z"/></g></g></g><path d="m211.92 27.12 1.87.88 1.91-4.1-1.87-.9zm-4.57-1.72 1.58 1.32 3.73-4.45-1.58-1.27zm-2.11-4.58 1.19 1.7 3.7-2.59-1.19-1.69zm14.59-8.7a1.27 1.27 0 0 1 -.4-1.37 1.29 1.29 0 1 1 2.22 1.25 1.28 1.28 0 0 1 -1 .47 1.26 1.26 0 0 1 -.83-.31m-1.73-3.16a3.35 3.35 0 1 0 2.57-1.2 3.36 3.36 0 0 0 -2.57 1.2m2.5 11.27c.92-.7 1.76-1.4 2.55-2.11a5.12 5.12 0 0 1 0 1.92 6.93 6.93 0 0 1 -1.83 2.4 8.17 8.17 0 0 0 -.73-2.21m-11.16-7.77a6.9 6.9 0 0 1 2-2.21 5 5 0 0 1 1.88-.29c-.55.89-1.09 1.84-1.62 2.86a8.24 8.24 0 0 0 -2.25-.33m3.92 1.61q3.21-6.35 7.12-9.19c.39-.29.79-.55 1.19-.79a15 15 0 0 0 2.59 2.8 15 15 0 0 0 3.16 2c-.17.43-.36.86-.57 1.3q-2.1 4.29-7.82 8.6zm12.23-8.77a12.27 12.27 0 0 1 -2.05-2.15 10.93 10.93 0 0 1 4.47-.89 11 11 0 0 1 0 4.61 12.63 12.63 0 0 1 -2.42-1.62m-6.33-2.09a21.3 21.3 0 0 0 -4.57 4.69 8.73 8.73 0 0 0 -4 .45c-1.15.5-2.43 2-4 4.66l-1 1.71 2-.14a11.2 11.2 0 0 1 3.3.12l1.67 1.4-.79 1.44a.66.66 0 0 0 .16.81l3.04 2.63a.63.63 0 0 0 .81 0l1.29-1 1.7 1.44a11 11 0 0 1 .7 3.23l.2 2 1.51-1.33c2.32-2 3.6-3.56 3.89-4.78a8.82 8.82 0 0 0 -.27-4.1 21.16 21.16 0 0 0 3.8-5.29 14 14 0 0 0 1.18-10.06l-.19-.71-.68-.07c-.42 0-.85-.07-1.27-.07a14.21 14.21 0 0 0 -8.45 3"/><g clip-path="url(#W)"><path d="m199.91-5.04h36.03v38.68h-36.03z"/><g clip-path="url(#X)"><path d="m205.21-.27h25.96v28.61h-25.96z"/><g clip-path="url(#Y)"><path d="m199.95-5.03h35.68v38.33h-35.68z"/><path d="m197.79-6.1h40.27v40.27h-40.27z"/></g></g></g><path d="m213.32 68.5a3.92 3.92 0 0 1 .31-1.51 8.42 8.42 0 0 0 7.28-4h.15c4.37 0 7.74 2.58 7.74 5.5a6.85 6.85 0 0 1 -.46 1.89l-.22.64.62 1.8-1.74-.55-.73.3a14.89 14.89 0 0 1 -5.21 1.43c-4.36 0-7.74-2.58-7.74-5.5m-5.57-5.72-.22-.61a6 6 0 0 1 -.43-1.67c0-2.39 2.68-4.5 6.19-4.5s6.19 2.11 6.19 4.5-2.69 4.5-6.19 4.5a12.25 12.25 0 0 1 -3.93-1l-.85-.34-1.2.57zm-2.75-2.28a7.41 7.41 0 0 0 .55 2.33l-1.55 5.17 4.59-2.16a20.48 20.48 0 0 0 2.93.93 5.84 5.84 0 0 0 -.26 1.73c0 4.14 4.39 7.5 9.8 7.5a16.61 16.61 0 0 0 6-1.59l4.94 1.59-1.71-5a8.25 8.25 0 0 0 .58-2.53c0-4-4.15-7.31-9.35-7.49a4.36 4.36 0 0 0 0-.51c0-3.59-3.7-6.5-8.26-6.5s-8.26 2.94-8.26 6.53"/><g clip-path="url(#Z)"><path d="m199 49h38v32.5h-38z"/><g clip-path="url(#aa)"><path d="m204 54h28v22.5h-28z"/><g clip-path="url(#ab)"><path d="m199 49h38v32h-38z"/><path d="m199 46h38v38h-38z"/></g></g></g><path d="m216.93 111.75 3.24 3.25h-16.17v2h16.17l-3.24 3.24 1.41 1.41 5.66-5.65-5.66-5.66zm-.93-9.75a4 4 0 0 0 -4 4v6h2v-6a2 2 0 0 1 2-2h12a2 2 0 0 1 2 2v20a2 2 0 0 1 -2 2h-12a2 2 0 0 1 -2-2v-6h-2v6a4 4 0 0 0 4 4h12a4 4 0 0 0 4-4v-20a4 4 0 0 0 -4-4z"/><g clip-path="url(#ac)"><path d="m198.5 97h38.5v38h-38.5z"/><g clip-path="url(#ad)"><path d="m204 102h28v28h-28z"/><g clip-path="url(#ae)"><path d="m199 97h38v38h-38z"/><path d="m199 97h38v38h-38z"/></g></g></g><path d="m216 171a2 2 0 1 1 2 2 2 2 0 0 1 -2-2m-2 0a4 4 0 0 0 3 3.87v2.13h2v-2.13a4 4 0 1 0 -5-3.87m-7 6v-11a2 2 0 0 1 2-2h18a2 2 0 0 1 2 2v11a2 2 0 0 1 -2 2h-18a2 2 0 0 1 -2-2m3-16h2a6 6 0 0 1 12 0v1h-15a4 4 0 0 0 -4 4v11a4 4 0 0 0 4 4h18a4 4 0 0 0 4-4v-11a4 4 0 0 0 -4-4h-1v-1a8 8 0 0 0 -16 0"/><g clip-path="url(#af)"><path d="m200 148h36v38h-36z"/><g clip-path="url(#ag)"><path d="m205 153h26v28h-26z"/><g clip-path="url(#ah)"><path d="m200 148h36v38h-36z"/><path d="m199 148h38v38h-38z"/></g></g></g><path d="m277.13 12.18.76 2 5.11-2-.76-2zm-3.59-3 1.4 1.61 4.59-4-1.4-1.61zm-8.32 13.76 4.19-2 .72 1.55-4.19 2zm-8.06-1.94 9-13.58 7.84 9.1-10 4.83-1.33.63-3.29 1.58zm6.5-16.56 1.22 1.4-9.65 14.54a1.22 1.22 0 0 0 .09 1.48l2.94 3.38a1.2 1.2 0 0 0 1.44.3l3.77-1.81 1.53 3.3 7.72-3.61-1.57-3.38 4.26-2.04 1 1.12 1.46-1.28-12.74-14.65zm6.34 1.3 1.86 1 2.61-4.74-1.86-1z"/><g clip-path="url(#ai)"><path d="m250-4.51h38.03v37.03h-38.03z"/><g clip-path="url(#aj)"><path d="m255 .49h28.02v27.02h-28.02z"/><g clip-path="url(#ak)"><path d="m250.02-4.06h37.98v36.12h-37.98z"/><path d="m250-5.01h38.03v38.03h-38.03z"/></g></g></g><path d="m255.67 79h27.27v-2h-27.27zm10.1-4h17.17v-2h-17.17zm6.06-4h11.11v-2h-11.11zm-13.52-1 12.46-12.45 1.43 1.42-12.46 12.34-1.9.48zm13.89-14 2.14-2.14 1.43 1.42-2.14 2.15zm-15.71 12.85-1.43 5.71 5.71-1.43 17.85-17.85-4.28-4.28z"/><g clip-path="url(#al)"><path d="m249.61 45.68h38.37v38.88h-38.37z"/><g clip-path="url(#am)"><path d="m254.66 50.73h28.27v28.27h-28.27z"/><path d="m254.66 50.73h28.27v28.27h-28.27z"/></g></g><path d="m255 116 5.66 5.65 1.41-1.41-3.24-3.24h16.17v-2h-16.18l3.25-3.25-1.41-1.41zm14-14a4 4 0 0 0 -4 4v6h2v-6a2 2 0 0 1 2-2h10a2 2 0 0 1 2 2v20a2 2 0 0 1 -2 2h-10a2 2 0 0 1 -2-2v-6h-2v6a4 4 0 0 0 4 4h10a4 4 0 0 0 4-4v-20a4 4 0 0 0 -4-4z"/><g clip-path="url(#an)"><path d="m250 97h38v38h-38z"/><g clip-path="url(#ao)"><path d="m255 102h28v28h-28z"/><g clip-path="url(#ap)"><path d="m250 97h38v38h-38z"/><path d="m250 97h38v38h-38z"/></g></g></g><path d="m269 170c2.78 0 4.65 2.3 5.58 7.63a12 12 0 0 1 -11.16 0v.07c.93-5.38 2.8-7.7 5.59-7.7m-3-5a3 3 0 1 1 3 3 3 3 0 0 1 -3-3m-9 2a12 12 0 1 1 19.39 9.46c-.8-3.85-2.19-6.39-4.2-7.61a5 5 0 1 0 -6.38 0c-2 1.22-3.4 3.76-4.2 7.61a12 12 0 0 1 -4.62-9.46m-2 0a14 14 0 1 0 14-14 14 14 0 0 0 -14 14"/><g clip-path="url(#aq)"><path d="m250 148h38v38h-38z"/><g clip-path="url(#ar)"><path d="m255 153h28v28h-28z"/><g clip-path="url(#as)"><path d="m250 148h38v38h-38z"/><path d="m250 148h38v38h-38z"/></g></g></g><path d="m314.14 11.73 1.25 1.67 3.19-2.4 2.09 4.2 5.19-3.9-1.25-1.68-3.19 2.38-2.09-4.19zm1.67 10.52v-1.25h8.38v1.3c0 1.59-1.29 1.84-2.89 1.84h-2.6c-1.6 0-2.89-.25-2.89-1.84m-1-5.47c-2.15-2.51-3.19-4.63-3.19-6.31a8.38 8.38 0 1 1 16.76 0c0 1.68-1 3.8-3.19 6.31a4.23 4.23 0 0 0 -.95 2.07h-8.48a4.23 4.23 0 0 0 -.95-2.07m5.05-16.83a10.46 10.46 0 0 0 -10.33 10.47c0 2.27 1.25 4.81 3.69 7.67a2.11 2.11 0 0 1 .5 1.36v2.75a3.67 3.67 0 0 0 3.16 3.75.68.68 0 0 0 0 .2v.64a1.14 1.14 0 0 0 .05.33 1.06 1.06 0 0 0 1.33.67l1.76-.59 1.76.59a1.26 1.26 0 0 0 .33.05 1 1 0 0 0 1.05-1.05v-.64a.68.68 0 0 0 0-.2 3.67 3.67 0 0 0 3.16-3.73v-2.77a2.11 2.11 0 0 1 .5-1.36c2.44-2.86 3.69-5.4 3.69-7.67a10.46 10.46 0 0 0 -10.37-10.47z"/><g clip-path="url(#at)"><path d="m304.29-5.24h31.42v38.75h-31.42z"/><g clip-path="url(#au)"><path d="m309.53 0h20.95v28.28h-20.95z"/><g clip-path="url(#av)"><path d="m304.29-5.24h31.42v38.34h-31.42z"/><path d="m300.1-6.28h39.8v39.8h-39.8z"/></g></g></g><path d="m315.12 64a1.09 1.09 0 0 0 1.08 1.08 1 1 0 0 0 1.08-1.08 1.08 1.08 0 1 0 -2.16 0m7.64 0a1 1 0 0 0 1.08 1.08 1.08 1.08 0 1 0 -1.08-1.08m-3.2 8.79.11-.16.24-.39a.08.08 0 0 1 .14 0l.23.38.28.39.38.54a.69.69 0 0 0 -.47 0 .6.6 0 0 0 -.38.38c-.06.11-.13.18-.2.18s-.16-.08-.21-.19a.69.69 0 0 0 -.63-.35c.19-.26.36-.52.53-.78m-1-4.84c0-.18.56-.56 1.46-.62s1.39.36 1.42.63a6.18 6.18 0 0 1 -1.46 1.26 7.21 7.21 0 0 1 -1.46-1.22m-10.3.37c-.57-.53-.56-1.82.08-3.51a18.76 18.76 0 0 1 3.8-5.8 17 17 0 0 1 1.69-1.62 17.36 17.36 0 0 1 2-1.28 1.29 1.29 0 0 1 .77-.2h6.83a2.76 2.76 0 0 1 1 .29h.1a8.7 8.7 0 0 1 1.66 1.1 11.81 11.81 0 0 1 1.69 1.65c2.66 2.85 4.39 6.15 4.31 8.15a1.59 1.59 0 0 1 -.45 1.16 2.16 2.16 0 0 1 -1.92.25 1 1 0 0 0 -.84.14.69.69 0 0 0 -.13.11 24.22 24.22 0 0 0 -.71-3.74 1.1 1.1 0 0 0 -1.07-.74h-.17a1.11 1.11 0 0 0 -.73 1.07v.13a31.58 31.58 0 0 1 .79 4.55 3.74 3.74 0 0 1 -3.74 3.56c-.09 0-.38-.25-.71-.68a12.73 12.73 0 0 1 -.78-1.13l-.27-.44a2.1 2.1 0 0 0 -.58-.54 10.59 10.59 0 0 0 1.5-1.19 2.37 2.37 0 0 0 .88-1.61c0-1.34-1.48-2.37-3.25-2.37s-3.25 1-3.25 2.37a2.77 2.77 0 0 0 1.16 1.95 9.41 9.41 0 0 0 1.18.87 1.48 1.48 0 0 0 -.57.64l-.21.36c-.23.37-.39.61-.59.88a5.62 5.62 0 0 1 -.38.49 1.38 1.38 0 0 1 -.52.44 3.7 3.7 0 0 1 -3.73-3.74v-.13a27.89 27.89 0 0 1 .7-4.14 1 1 0 0 0 -.14-.85 1 1 0 0 0 -.66-.39 1 1 0 0 0 -.79.16 1 1 0 0 0 -.39.62 15.52 15.52 0 0 0 -.79 3.49.94.94 0 0 0 -.68-.07 4.94 4.94 0 0 1 -1 .12 1.35 1.35 0 0 1 -1.05-.37m8.43-14.18a3.88 3.88 0 0 0 -1.76.46 10.34 10.34 0 0 0 -2.25 1.43l-.42.37a15 15 0 0 0 -1.44 1.41c-2.99 3.13-4.84 6.54-4.84 9.13v.25a3.5 3.5 0 0 0 1 2.52 4 4 0 0 0 4 .69h.13a5.67 5.67 0 0 0 5.6 5.13 2.29 2.29 0 0 0 1.54-.64 1.93 1.93 0 0 0 1.61.94 1.91 1.91 0 0 0 1.7-1 2.31 2.31 0 0 0 1.61.71 5.6 5.6 0 0 0 5.62-5.28 1 1 0 0 0 .51.17 5.7 5.7 0 0 0 1.2.15 3.4 3.4 0 0 0 2.46-.88c1.13-1.09 1.3-3 .52-5.25a19.29 19.29 0 0 0 -4.3-6.7l-2-1.71-.24-.18a9.65 9.65 0 0 0 -1.8-1.13 3.4 3.4 0 0 0 -1.86-.55z"/><g clip-path="url(#aw)"><path d="m301 49h38v32h-38z"/><g clip-path="url(#ax)"><path d="m306 54h28v22h-28z"/><g clip-path="url(#ay)"><path d="m301 49.16h38v31.67h-38z"/><path d="m301 46h38v38h-38z"/></g></g></g><path d="m309.16 119.19h21.31v5.33h-21.31zm2.13-5.32h17v3.2h-17zm-3.16-3.2a1.54 1.54 0 0 1 0-.3l1.51-5h3.61l-.8 6.39h-3.25a1.07 1.07 0 0 1 -1.07-1.07m7.29-5.32h3.33v6.39h-4.13zm5.46 0h3.33l.8 6.39h-4.13zm5.46 0h3.66l1.5 5a1.08 1.08 0 0 1 -1 1.37h-3.29zm-18.24-2.13-2 6.53a2.89 2.89 0 0 0 -.14.92 3.19 3.19 0 0 0 3 3.19h.15v3.2h-1.01a1.06 1.06 0 0 0 -1.07 1.06v7.46a1.07 1.07 0 0 0 1.07 1.06h1.06v1.07a1.07 1.07 0 0 0 2.13 0v-1.07h17v1.07a1.07 1.07 0 0 0 2.13 0v-1.07h1.06a1.07 1.07 0 0 0 1.07-1.06v-7.46a1.06 1.06 0 0 0 -1.07-1.06h-1.06v-3.2a3.3 3.3 0 0 0 .88-.14 3.19 3.19 0 0 0 2.14-4l-2-6.53z"/><g clip-path="url(#az)"><path d="m300.64 97.89h38.35v36.22h-38.35z"/><g clip-path="url(#aA)"><path d="m305.97 103.22h28.23v25.57h-28.23z"/><g clip-path="url(#aB)"><path d="m300.67 97.89h38.28v36.22h-38.28z"/><path d="m299.57 95.76h40.48v40.48h-40.48z"/></g></g></g><path d="m308 167a2 2 0 1 1 2 2 2 2 0 0 1 -2-2m-2 0a4 4 0 1 0 4-4 4 4 0 0 0 -4 4m12 0a2 2 0 1 1 2 2 2 2 0 0 1 -2-2m-2 0a4 4 0 1 0 4-4 4 4 0 0 0 -4 4m12 0a2 2 0 1 1 2 2 2 2 0 0 1 -2-2m-2 0a4 4 0 1 0 4-4 4 4 0 0 0 -4 4"/><g clip-path="url(#aC)"><path d="m301 153h38v28h-38z"/><g clip-path="url(#aD)"><path d="m306 163h28v8h-28z"/><g clip-path="url(#aE)"><path d="m301 158h38v18h-38z"/><path d="m301 148h38v38h-38z"/></g></g></g><path d="m366 14a5.35 5.35 0 0 1 5-5c1.58 0 3 1.92 3 5 0 3.64-.84 5-3 5a4.75 4.75 0 0 1 -5-5m-9 0a14 14 0 0 0 22 11.51l-1.62-1.33a12 12 0 1 1 -6.38-22.18c6.37 0 12 5.84 12 12 0 2.64-1.72 5-4 5-3 0-3-1-3-5v-.28c-.1-3.93-2.22-6.72-5-6.72a7.31 7.31 0 0 0 -7 7 6.75 6.75 0 0 0 7 7 4.3 4.3 0 0 0 3.77-1.7c.84 1.13 2 1.7 4.2 1.7 4 0 6-4 6-7 0-7-6.27-14-14-14a14 14 0 0 0 -14 14"/><g clip-path="url(#aF)"><path d="m352-5h38v38h-38z"/><g clip-path="url(#aG)"><path d="m357 0h28v28h-28z"/><g clip-path="url(#aH)"><path d="m352-5h38v38h-38z"/><path d="m352-5h38v38h-38z"/></g></g></g><path d="m363 67h2v2h-2zm-2 4h6v-6h-6zm9-4h2v2h-2zm-2 4h6v-6h-6zm10-4.5-1.5-1.5-1.5 1.5 1.5 1.5-1.5 1.5 1.5 1.5 1.5-1.5 1.5 1.5 1.5-1.5-1.5-1.5 1.5-1.5-1.5-1.5zm1-7.31v-.19h4v16h-24v-16h4v.19a3 3 0 0 0 6 0v-.19h4v.19a3 3 0 0 0 6 0m-14 .19v-3.76c0-.34.45-.62 1-.62s1 .28 1 .62v3.76c0 .34-.45.62-1 .62s-1-.28-1-.62m10 0v-3.76c0-.34.45-.62 1-.62s1 .28 1 .62v3.76c0 .34-.45.62-1 .62s-1-.28-1-.62m-2-3.57v1.19h-4v-1.19a3 3 0 0 0 -6 0v1.19h-4a2 2 0 0 0 -2 2v16a2 2 0 0 0 2 2h24a2 2 0 0 0 2-2v-16a2 2 0 0 0 -2-2h-4v-1.19a3 3 0 0 0 -6 0"/><g clip-path="url(#aI)"><path d="m352 48h38v34h-38z"/><g clip-path="url(#aJ)"><path d="m357 53h28v24h-28z"/><g clip-path="url(#aK)"><path d="m352 48h38v34h-38z"/><path d="m352 47h38v38h-38z"/></g></g></g><path d="m378.19 115.11h.11c2.37 1.32 3.94 5 4.59 11.47h-13.69c.65-6.47 2.22-10.15 4.6-11.47a6 6 0 0 0 2.25.44 6.11 6.11 0 0 0 2.14-.39m-19.19 1.37 5-3.58 5 3.58v2l-1 5h-1v-4a1 1 0 0 0 -1-1h-4a1 1 0 0 0 -1 1v4h-2zm13-7a4 4 0 1 1 4 4 4 4 0 0 1 -4-4m-2 0a6 6 0 0 0 1.91 4.4 7.51 7.51 0 0 0 -1.31 1.33l-6-4.3a1 1 0 0 0 -1.17 0l-6 4.3a1 1 0 0 0 -.42.81v8.51a1 1 0 0 0 1 1h4a1 1 0 0 0 1-1v-4h2v4a1 1 0 0 0 1 1h1.27l-.09.8v.21a2 2 0 0 0 2 2h13.89a2 2 0 0 0 1.8-2.2q-1-9.45-4.74-12.44a6 6 0 1 0 -10.12-4.4"/><g clip-path="url(#aL)"><path d="m351.49 98.46h38.59v35.59h-38.59z"/><g clip-path="url(#aM)"><path d="m357 103.47h28.07v25.56h-28.07z"/><g clip-path="url(#aN)"><path d="m351.99 98.46h37.92v35.08h-37.92z"/><path d="m351.99 97.46h38.09v38.09h-38.09z"/></g></g></g><path d="m417 7.62 5-2.5 5 2.5v6.38h-2v-3a2 2 0 0 0 -2-2h-2a2 2 0 0 0 -2 2v3h-2zm4.1-4.29-5 2.5a2 2 0 0 0 -1.1 1.79v6.38a2 2 0 0 0 2 2h2a2 2 0 0 0 2-2v-3h2v3a2 2 0 0 0 2 2h2a2 2 0 0 0 2-2v-6.38a2 2 0 0 0 -1.1-1.79l-5-2.5a2 2 0 0 0 -.89-.21 2 2 0 0 0 -.9.21m-8.11 7.67a9 9 0 0 1 18 0c0 3.11-3 7.92-9 14.15-6-6.23-9-11-9-14.15m-2 0q0 6.08 11 17 11-10.92 11-17a11 11 0 0 0 -22 0"/><g clip-path="url(#aO)"><path d="m406-5h32v38h-32z"/><g clip-path="url(#aP)"><path d="m411 0h22v28h-22z"/><g clip-path="url(#aQ)"><path d="m406-5h32v38h-32z"/><path d="m403-5h38v38h-38z"/></g></g></g><path d="m418.5 64.5v2.5h-2.5v2h2.5v2.5h2v-2.5h2.5v-2h-2.5v-2.5zm-8.5 9v-11a1 1 0 0 1 1-1h17a1 1 0 0 1 1 1v11a1 1 0 0 1 -1 1h-17a1 1 0 0 1 -1-1m5-17a1 1 0 0 1 1-1h17a1 1 0 0 1 1 1v11a1 1 0 0 1 -1 1h-2v-6a3 3 0 0 0 -3-3h-13zm1-3a3 3 0 0 0 -3 3v3h-2a3 3 0 0 0 -3 3v11a3 3 0 0 0 3 3h17a3 3 0 0 0 3-3v-3h2a3 3 0 0 0 3-3v-11a3 3 0 0 0 -3-3z"/><g clip-path="url(#aR)"><path d="m403 48.5h38v33h-38z"/><g clip-path="url(#aS)"><path d="m408 53.5h28v23h-28z"/><g clip-path="url(#aT)"><path d="m403 48.5h38v33h-38z"/><path d="m403 46.5h38v38h-38z"/></g></g></g><path d="m420.83 126.5h2.34a1.17 1.17 0 0 1 -2.34 0m-7-4.57 1.17-.67v-7.59a7.48 7.48 0 0 1 4.43-6.5l1.23-.51v-1.16c0-1.17 1.34-1.17 1.35-1.17s1.38.07 1.38 1.17v1.14l1.3.44c2.7.93 4.31 3.37 4.31 6.59v7.59l1.17.67a4.61 4.61 0 0 1 1.88 2.24h-20.05a4.61 4.61 0 0 1 1.88-2.24m4.7-16.92a9.84 9.84 0 0 0 -5.86 8.66v6.24a7.51 7.51 0 0 0 -3.5 6.59h9.33a3.49 3.49 0 0 0 3.42 3.5h.16a3.5 3.5 0 0 0 3.42-3.5h9.33a7.51 7.51 0 0 0 -3.5-6.59v-6.24c0-4.12-2.15-7.52-5.88-8.79a3.51 3.51 0 0 0 -6.92.13"/><g clip-path="url(#aU)"><path d="m403.33 96.17h37.33v39.67h-37.33z"/><g clip-path="url(#aV)"><path d="m409.17 102h25.67v28h-25.67z"/><g clip-path="url(#aW)"><path d="m403.33 96.17h37.33v39.67h-37.33z"/><path d="m399.83 93.84h44.33v44.33h-44.33z"/></g></g></g><path d="m472 7v6h-6v2h6v6h2v-6h6v-2h-6v-6zm-11 7a12 12 0 1 1 12 12 12 12 0 0 1 -12-12m-2 0a14 14 0 1 0 14-14 14 14 0 0 0 -14 14"/><g clip-path="url(#aX)"><path d="m454-5h38v38h-38z"/><g clip-path="url(#aY)"><path d="m459 0h28v28h-28z"/><g clip-path="url(#aZ)"><path d="m454-5h38v38h-38z"/><path d="m454-5h38v38h-38z"/></g></g></g><path d="m462.08 65.48c.55-1.1 1-1.56 1.19-1.56h1.08c.18 0 .64.46 1.19 1.56a6.94 6.94 0 0 1 .44 1.11 3.06 3.06 0 0 1 .12.5 22 22 0 0 0 -.56 3.29h-4.39a16.61 16.61 0 0 1 .93-4.9m17.83 1.52a2.94 2.94 0 0 1 .11-.45 6.94 6.94 0 0 1 .44-1.11c.55-1.1 1-1.56 1.19-1.56h1.08c.18 0 .64.46 1.19 1.56a16.61 16.61 0 0 1 .93 4.9h-4.31a19.64 19.64 0 0 0 -.63-3.34m-4.72-3.58.16-.08a3.71 3.71 0 0 1 .75.86 21.7 21.7 0 0 1 1.33 2.35c.91 1.68 1.28 5.8 1.07 8.1h-11c-.11-2.53.24-6.67 1-8.1l.51-1 .46-.81a4.71 4.71 0 0 1 1.18-1.42 5.29 5.29 0 0 0 2.28.51 5.35 5.35 0 0 0 2.2-.46m-13-3.3a1.61 1.61 0 1 1 1.61 1.61 1.61 1.61 0 0 1 -1.61-1.61m18.38 0a1.61 1.61 0 1 1 1.61 1.61 1.61 1.61 0 0 1 -1.61-1.61m-10.81-1.62a3.23 3.23 0 1 1 3.3 3.32 3.23 3.23 0 0 1 -3.22-3.23m-2.16 0a5.33 5.33 0 0 0 1.33 3.54 8.08 8.08 0 0 0 -1.25 1.64l-.34.58a7.27 7.27 0 0 0 -.93-1.42 3.77 3.77 0 1 0 -6.43-2.72 3.76 3.76 0 0 0 1.16 2.71 7.83 7.83 0 0 0 -1 1.65 18.32 18.32 0 0 0 -1.16 5.72v.14a2.16 2.16 0 0 0 2.15 2.16h4.24v2.25a2.15 2.15 0 0 0 2.15 2h11a2.15 2.15 0 0 0 2.14-2 21.61 21.61 0 0 0 .06-2.34h4.15a2.16 2.16 0 0 0 2.11-2.07.66.66 0 0 0 0-.14 18 18 0 0 0 -1.15-5.72 7.49 7.49 0 0 0 -1-1.64 3.77 3.77 0 1 0 -6.38-2.72 3.76 3.76 0 0 0 1.16 2.71 8 8 0 0 0 -.94 1.44l-.06-.12c-.27-.47-.48-.83-.69-1.14a5.67 5.67 0 0 0 -.81-1 5.38 5.38 0 1 0 -9.47-3.51"/><g clip-path="url(#a0)"><path d="m453.62 47.78h39.29v34.45h-39.29z"/><g clip-path="url(#a1)"><path d="m459 53.16h28.53v23.68h-28.53z"/><g clip-path="url(#a2)"><path d="m453.62 47.78h38.77v34.45h-38.77z"/><path d="m452.54 44.55h40.91v40.91h-40.91z"/></g></g></g><path d="m461.5 122.61 4.18-3.48 4.18 3.48v5.3h-8.36zm3.5-5.61-5.23 4.36a1 1 0 0 0 -.37.8v6.84a1 1 0 0 0 1 1.05h10.46a1 1 0 0 0 1-1.05v-6.83a1 1 0 0 0 -.37-.8l-5.14-4.37a1.06 1.06 0 0 0 -1.34 0m11.13 5.65 4.18-3.48 4.18 3.48v5.3h-8.36zm3.51-5.65-5.23 4.36a1 1 0 0 0 -.37.8v6.84a1 1 0 0 0 1 1.05h10.46a1 1 0 0 0 1-1.05v-6.83a1 1 0 0 0 -.37-.8l-5.14-4.37a1.06 1.06 0 0 0 -.67-.24 1 1 0 0 0 -.67.24m-10.83-9 4.18-3.48 4.18 3.48v5.3h-8.36zm3.51-5.65-5.23 4.36a1 1 0 0 0 -.38.8v6.83a1 1 0 0 0 1 1h10.46a1 1 0 0 0 1-1v-6.83a1 1 0 0 0 -.37-.8l-5.23-4.36a1.06 1.06 0 0 0 -.67-.24 1 1 0 0 0 -.67.24"/><g clip-path="url(#a3)"><path d="m454.18 96.54h37.65v39.22h-37.65z"/><g clip-path="url(#a4)"><path d="m459.41 101.76h27.19v28.76h-27.19z"/><g clip-path="url(#a5)"><path d="m454.18 96.85h37.65v38.38h-37.65z"/><path d="m453.13 96.54h39.74v39.74h-39.74z"/></g></g></g><path d="m522.21 12.68.17-.07c1.12 1.16 2 3.69 2.47 7.72a1.08 1.08 0 0 1 -.94 1.2h-6.15a1.08 1.08 0 0 1 -1.08-1.08.57.57 0 0 1 0-.13c.49-4 1.35-6.56 2.46-7.72a4.37 4.37 0 0 0 1.62.31 4.31 4.31 0 0 0 1.44-.24m-3.6-4.07a2.16 2.16 0 1 1 2.16 2.16 2.16 2.16 0 0 1 -2.16-2.16m-2.15 0a4.33 4.33 0 0 0 .95 2.7c-1.43 1.67-2.36 4.62-2.86 8.76a2.55 2.55 0 0 0 0 .39 3.23 3.23 0 0 0 3.23 3.23h6 .39a3.24 3.24 0 0 0 2.82-3.6c-.5-4.14-1.43-7.09-2.86-8.76a4.31 4.31 0 1 0 -7.67-2.7m19.39-6.46v23.7h-22.61a1.09 1.09 0 0 1 -1.08-1.08v-21.55a1.08 1.08 0 0 1 1.08-1.08h16.16v23.7h2.15v-23.7h1.08v23.7h2.15v-23.7zm-22.72-2.16a3.23 3.23 0 0 0 -3.12 3.23v21.54a3.23 3.23 0 0 0 3.23 3.23h24.77v-28z"/><g clip-path="url(#a6)"><path d="m504.61-5.39h38.77v38.77h-38.77z"/><g clip-path="url(#a7)"><path d="m510 0h28v28h-28z"/><g clip-path="url(#a8)"><path d="m504.61-5.39h38.77v38.77h-38.77z"/><path d="m503.54-6.46h40.92v40.92h-40.92z"/></g></g></g><path d="m514.45 68.14a3.21 3.21 0 0 0 1.3-.79l8.25-8.25 8.26 8.25a3.12 3.12 0 0 0 1.29.79v8.63h-5.31v-6.36a2.12 2.12 0 0 0 -2.12-2.13h-4.24a2.12 2.12 0 0 0 -2.12 2.13v6.36h-5.31zm-1.71-2.29a1.07 1.07 0 0 1 0-1.5l10.51-10.5a1.05 1.05 0 0 1 1.5 0l10.51 10.5a1.06 1.06 0 0 1 -1.5 1.5l-9-9a1.05 1.05 0 0 0 -1.5 0l-9 9a1 1 0 0 1 -.75.31 1.05 1.05 0 0 1 -.75-.31m9-13.51-10.52 10.51a3.19 3.19 0 0 0 0 4.5 3.07 3.07 0 0 0 1.09.71v8.71a2.12 2.12 0 0 0 2.12 2.13h5.31a2.12 2.12 0 0 0 2.12-2.13v-6.36h4.24v6.36a2.12 2.12 0 0 0 2.12 2.13h5.31a2.12 2.12 0 0 0 2.12-2.13v-8.71a3.07 3.07 0 0 0 1.09-.71 3.19 3.19 0 0 0 0-4.5l-10.51-10.51a3.19 3.19 0 0 0 -4.5 0"/><g clip-path="url(#a9)"><path d="m504.9 46h38.2v38.2h-38.2z"/><g clip-path="url(#ba)"><path d="m509.67 50.77h28.65v28.12h-28.65z"/><g clip-path="url(#bb)"><path d="m505.01 46.1h37.99v38.1h-37.99z"/><path d="m503.84 44.94h40.33v40.33h-40.33z"/></g></g></g><path d="m529.36 120.34h3.24l2.55 7h-22.3l2.55-7h3.32l5.29 6zm-3.91-13.53a5 5 0 0 1 7.07 0 4.91 4.91 0 0 1 0 7.12q-1.72 1.84-8.46 9.41-6.64-7.57-8.44-9.44a4.81 4.81 0 0 1 0-7.09 5 5 0 0 1 7.07 0l1.41 1.41zm-1.45-1.42a7 7 0 0 0 -9.9 0 6.81 6.81 0 0 0 0 9.9c.57.59 1.5 1.6 2.8 3h-2.9l-4 11h28l-4-11h-2.84c1.3-1.45 2.23-2.46 2.77-3a6.9 6.9 0 0 0 0-9.9 7 7 0 0 0 -9.9 0"/><g clip-path="url(#bc)"><path d="m505 98.34h38v36h-38z"/><g clip-path="url(#bd)"><path d="m510 102.34h28v27h-28z"/><g clip-path="url(#be)"><path d="m505 98.34h38v36h-38z"/><path d="m505 97.34h38v38h-38z"/></g></g></g><path d="m570.52 13.55a1.07 1.07 0 1 0 1.07-1.07 1 1 0 0 0 -1.07 1.07m6.58 0a1.07 1.07 0 1 0 1.07-1.07 1.08 1.08 0 0 0 -1.07 1.07m-4.45 8.23a2.23 2.23 0 1 1 2.22 2.22 2.22 2.22 0 0 1 -2.22-2.22m-.16-3.54c.25-.5 1.15-.75 2.39-.75s2.14.25 2.39.75a1.21 1.21 0 0 1 .16.9 3.7 3.7 0 0 0 -5 0 1.63 1.63 0 0 1 .08-.9m-6.09-7.16a8.9 8.9 0 0 1 7.08-6.26.66.66 0 0 0 .41.16c1.55.02 3.09 1.15 3.09 2.31a2 2 0 0 1 -2.12 1.71c-.58 0-1.48-.17-1.48-1a.55.55 0 0 1 .33-.49.51.51 0 0 1 .66 0 .72.72 0 0 0 .73-1.24 2.23 2.23 0 0 0 -2.14.09 2.19 2.19 0 0 0 -1.07 1.73c0 1.4 1.24 2.47 3 2.47a3.38 3.38 0 0 0 3.54-3.13 3.5 3.5 0 0 0 -.82-2.14 8.84 8.84 0 0 1 5.76 5.92l.25.82.74-.33a1.69 1.69 0 0 1 .91-.16 2.21 2.21 0 0 1 2.22 2.22 2.12 2.12 0 0 1 -2.22 2.06 2.54 2.54 0 0 1 -.83-.17l-.74-.32-.25.82a8.84 8.84 0 0 1 -4.77 5.51 3 3 0 0 0 -.17-.9 3.47 3.47 0 0 0 .17-3.21c-.58-1-1.81-1.48-3.7-1.48s-3.13.49-3.7 1.48a3.77 3.77 0 0 0 .16 3.21c-.08.32-.16.57-.25.9a8.84 8.84 0 0 1 -4.77-5.51l-.25-.82-.74.32a2.27 2.27 0 0 1 -2.88-1.23 2.18 2.18 0 0 1 1.15-2.88 2.09 2.09 0 0 1 1.73 0l.74.33zm4.92-7.08a10.3 10.3 0 0 0 -6 6 3.68 3.68 0 1 0 -1.34 7.25 3.61 3.61 0 0 0 1.31 0 10.46 10.46 0 0 0 6.34 6.17 3.71 3.71 0 0 0 4.93 1.73 3.91 3.91 0 0 0 1.73-1.73 10.46 10.46 0 0 0 6.34-6.17 3.68 3.68 0 1 0 1.35-7.25 2.82 2.82 0 0 0 -.73-.08 1.84 1.84 0 0 0 -.66.08 10.27 10.27 0 0 0 -9.61-6.69 9.91 9.91 0 0 0 -3.64.69"/><g clip-path="url(#bf)"><path d="m557.11-.78h35.78v30.33h-35.78z"/><g clip-path="url(#bg)"><path d="m561 1.55h28v24.89h-28z"/><g clip-path="url(#bh)"><path d="m557.11-.58h35.78v29.99h-35.78z"/><path d="m557.11-3.5h35.78v35.78h-35.78z"/></g></g></g><path d="m573 59a2 2 0 1 1 2 2 2 2 0 0 1 -2-2m-2 0a4 4 0 1 0 4-4 4 4 0 0 0 -4 4m7.56 9h5l2.66 8h-22.44l2.66-8h5q1.47 2.67 3.56 6 2.09-3.33 3.56-6m-8.56-9a5 5 0 0 1 10 0c0 1.77-1.67 5.6-5 11.18-3.33-5.58-5-9.41-5-11.18m-2 0q0 2.27 2.39 7h-5.39l-4 12h28l-4-12h-5.39q2.39-4.74 2.39-7a7 7 0 0 0 -14 0"/><g clip-path="url(#bi)"><path d="m556 47h38v36h-38z"/><g clip-path="url(#bj)"><path d="m561 52h28v26h-28z"/><g clip-path="url(#bk)"><path d="m556 47h38v36h-38z"/><path d="m556 46h38v38h-38z"/></g></g></g><path d="m571 116a4 4 0 1 1 4 4 4 4 0 0 1 -4-4m-2 0a6 6 0 1 0 6-6 6 6 0 0 0 -6 6m-5.43 0c4-4.72 7.79-7 11.43-7s7.46 2.28 11.43 7c-4 4.72-7.79 7-11.43 7s-7.46-2.28-11.43-7m-2.57 0q7 9 14 9t14-9q-7-9-14-9t-14 9"/><g clip-path="url(#bl)"><path d="m556 102h38v28h-38z"/><g clip-path="url(#bm)"><path d="m561 107h28v18h-28z"/><g clip-path="url(#bn)"><path d="m556 102h38v28h-38z"/><path d="m556 97h38v38h-38z"/></g></g></g></g></svg>