<svg width="48" height="54" viewBox="0 0 48 54" fill="none" xmlns="http://www.w3.org/2000/svg">
<style type="text/css">
	.st0{fill:#B2CA06;}
</style>
<path class="st0" d="M45.4,12.1L26.5,1.1c-1.6-0.9-3.6-0.9-5.3,0L2.4,12.1c-1.6,0.9-2.6,2.7-2.6,4.5v20.9c0,1.9,1,3.6,2.6,4.5
	l7.9,4.6V34.4l3.9,2.3c0.2,0.1,0.3,0.3,0.3,0.5V49l6.8,3.9c0.8,0.5,1.7,0.7,2.6,0.7c0.9,0,1.8-0.2,2.6-0.7l6.8-3.9V37.1
	c0-0.2,0.1-0.4,0.3-0.5l3.9-2.3v12.2l7.9-4.6c1.6-0.9,2.6-2.7,2.6-4.5V16.6C48,14.7,47,13,45.4,12.1z M43.3,14.5L25.5,24.8V4.1
	L43.3,14.5z M22.3,4.1v20.7L4.5,14.5L22.3,4.1z M17.6,47.2V37.1c0-1.3-0.7-2.5-1.8-3.2l-5.9-3.4c-0.6-0.3-1.3-0.3-1.8,0
	c-0.6,0.3-0.9,0.9-0.9,1.6v9L4,39.3c-0.6-0.4-1-1.1-1-1.8V17.2l19.4,11.3v21.5L17.6,47.2z M43.8,39.3l-3.1,1.8v-9
	c0-0.7-0.4-1.3-0.9-1.6c-0.6-0.3-1.3-0.3-1.8,0L32,33.9c-1.1,0.7-1.8,1.9-1.8,3.2v10.1l-4.7,2.7V28.5l19.4-11.3v20.3
	C44.9,38.2,44.5,38.9,43.8,39.3z"/>
</svg>
