<svg width="64" height="64" viewBox="0 0 64 64" fill="none" xmlns="http://www.w3.org/2000/svg">
<rect width="64" height="64" rx="32" fill="#CAE85D"/>
<path fill-rule="evenodd" clip-rule="evenodd" d="M46.2931 22.1054L33.8235 14.8683C32.7484 14.2438 31.421 14.2438 30.3459 14.8683L17.8827 22.1054C16.8184 22.726 16.1627 23.8642 16.1599 25.0963V38.9076C16.1617 40.1382 16.8179 41.275 17.8827 41.8921L23.0864 44.915V36.8806L25.6834 38.3728C25.7873 38.4379 25.8512 38.5512 25.8531 38.6738V46.5225L30.3363 49.1356C31.4151 49.7546 32.7415 49.7546 33.8203 49.1356L38.3035 46.5225V38.6738C38.3062 38.5498 38.3728 38.4359 38.4796 38.3728L41.0734 36.8806V44.915L43.1517 43.7077L46.2803 41.8921C47.3443 41.2747 47.9994 40.1377 47.9999 38.9076V25.0963C48.0011 23.8673 47.3518 22.7295 46.2931 22.1054ZM31.0472 47.1405L27.9314 45.3313V38.6738C27.933 37.8099 27.4742 37.0106 26.7273 36.5763L22.8366 34.3348C22.4618 34.1183 21.9999 34.1185 21.6253 34.3353C21.2506 34.552 21.0202 34.9523 21.0209 35.3851V41.2996L18.9235 40.102C18.5004 39.8525 18.2401 39.3987 18.2382 38.9076V25.5062L31.0472 32.9418V47.1405ZM19.2661 23.6873L31.0472 30.5433V16.8601L19.2661 23.6873ZM33.1318 16.8601L44.9097 23.6873L33.1318 30.5433V16.8601ZM45.2492 40.102C45.6756 39.8551 45.9389 39.4003 45.9408 38.9076V25.5062L33.1318 32.9418V47.1405L36.238 45.3313V38.677C36.2416 37.8112 36.705 37.0125 37.4549 36.5795L41.352 34.338C41.7266 34.1232 42.1873 34.1243 42.561 34.3408C42.9346 34.5573 43.1646 34.9565 43.1645 35.3883V41.2996L45.2492 40.102Z" fill="#201649"/>
</svg>
