<?xml version="1.0" encoding="utf-8"?>
<!-- Generator: Adobe Illustrator 25.0.0, SVG Export Plug-In . SVG Version: 6.00 Build 0)  -->
<svg version="1.1" xmlns="http://www.w3.org/2000/svg" xmlns:xlink="http://www.w3.org/1999/xlink" x="0px" y="0px"
	 viewBox="0 0 595.3 69.6" style="enable-background:new 0 0 595.3 69.6;" xml:space="preserve">
<style type="text/css">
	.st0{fill:#FFFFFF;stroke:#EDEDE9;stroke-linecap:round;stroke-linejoin:round;stroke-miterlimit:10;}
	.st1{fill:none;stroke:#EDEDE9;stroke-linecap:round;stroke-linejoin:round;stroke-miterlimit:10;}
</style>
<g id="Layer_1">
	<g>
		<g>
			<polygon class="st0" points="167.9,69.4 134.9,50 103.8,69.4 			"/>
			<g>
				<polygon class="st0" points="106,69.4 91.6,37 78.1,69.4 				"/>
				<polygon class="st0" points="116.5,69.4 107.3,55 98.5,69.4 				"/>
				<polygon class="st0" points="85.4,52 89.9,48.7 92.3,52.2 93.9,48.1 98.6,52.7 91.6,37 				"/>
			</g>
		</g>
		<g>
			<polyline class="st0" points="210.4,69.5 210.4,9.2 224.4,1.7 237.6,9 237.6,69.5 			"/>
			<g>
				<g>
					<g>
						<rect x="216.2" y="14.5" class="st0" width="5.6" height="5.6"/>
						<rect x="226.2" y="14.5" class="st0" width="5.6" height="5.6"/>
					</g>
				</g>
				<g>
					<g>
						<rect x="216.2" y="23.5" class="st0" width="5.6" height="5.6"/>
						<rect x="226.2" y="23.5" class="st0" width="5.6" height="5.6"/>
					</g>
				</g>
				<g>
					<g>
						<rect x="216.2" y="32.5" class="st0" width="5.6" height="5.6"/>
						<rect x="226.2" y="32.5" class="st0" width="5.6" height="5.6"/>
					</g>
				</g>
				<g>
					<g>
						<rect x="216.2" y="41.5" class="st0" width="5.6" height="5.6"/>
						<rect x="226.2" y="41.5" class="st0" width="5.6" height="5.6"/>
					</g>
				</g>
				<g>
					<g>
						<rect x="216.2" y="50.5" class="st0" width="5.6" height="5.6"/>
						<rect x="226.2" y="50.5" class="st0" width="5.6" height="5.6"/>
					</g>
				</g>
			</g>
			<g>
				<polyline class="st0" points="219.6,69.5 219.6,59.5 228.4,59.5 228.4,69.5 				"/>
			</g>
		</g>
		<polyline class="st0" points="264.6,69.3 264.6,0 286.5,4.3 286.5,69.4 		"/>
		<g>
			<rect x="277.4" y="10.7" class="st0" width="4.5" height="4.5"/>
			<rect x="269.3" y="10.7" class="st0" width="4.5" height="4.5"/>
		</g>
		<g>
			<g>
				<rect x="277.4" y="17.9" class="st0" width="4.5" height="4.5"/>
				<rect x="269.3" y="17.9" class="st0" width="4.5" height="4.5"/>
			</g>
		</g>
		<g>
			<polyline class="st0" points="264.6,69.5 264.6,36 250.6,28.6 237.4,36.6 237.4,69.5 			"/>
			<g>
				<rect x="253.2" y="41.6" class="st0" width="5.5" height="5.5"/>
				<rect x="243.2" y="41.6" class="st0" width="5.5" height="5.5"/>
			</g>
			<g>
				<rect x="253.2" y="50.6" class="st0" width="5.5" height="5.5"/>
				<rect x="243.2" y="50.6" class="st0" width="5.5" height="5.5"/>
			</g>
			<g>
				<polyline class="st0" points="254.9,69.5 254.9,59.6 246.2,59.6 246.2,69.5 				"/>
			</g>
		</g>
		<g>
			<g>
				<line class="st1" x1="192.1" y1="69.2" x2="173" y2="69.2"/>
				<path class="st0" d="M174.7,69.1c-1.4-1.7-2.3-4-2.3-6.4c0-5.5,4.5-10,10-10s10,4.5,10,10c0,2.4-0.9,4.7-2.3,6.4H174.7z"/>
			</g>
		</g>
		<g>
			<rect x="277.4" y="25.2" class="st0" width="4.5" height="4.5"/>
			<rect x="269.3" y="25.2" class="st0" width="4.5" height="4.5"/>
		</g>
		<g>
			<rect x="277.4" y="32.5" class="st0" width="4.5" height="4.5"/>
			<rect x="269.3" y="32.5" class="st0" width="4.5" height="4.5"/>
		</g>
		<g>
			<rect x="277.4" y="39.7" class="st0" width="4.5" height="4.5"/>
			<rect x="269.3" y="39.7" class="st0" width="4.5" height="4.5"/>
		</g>
		<g>
			<rect x="277.4" y="47" class="st0" width="4.5" height="4.5"/>
			<rect x="269.3" y="47" class="st0" width="4.5" height="4.5"/>
		</g>
		<g>
			<polygon class="st0" points="369.5,69.6 332.5,69.6 332.5,36.4 351,22.5 369.5,36.4 			"/>
			<g>
				<g>
					<rect x="336.3" y="40.2" class="st0" width="8.6" height="8.6"/>
				</g>
				<g>
					<rect x="348.4" y="40.2" class="st0" width="17.3" height="8.6"/>
				</g>
			</g>
			<g>
				<g>
					<rect x="336.3" y="54.8" class="st0" width="8.6" height="8.6"/>
				</g>
				<g>
					<rect x="348.4" y="54.8" class="st0" width="17.3" height="8.6"/>
				</g>
			</g>
			<polygon class="st0" points="358.8,28.4 358.8,25.3 362.1,25.3 362.1,30.9 			"/>
		</g>
		<g>
			<g>
				<polygon class="st0" points="48.2,69.1 85.2,69.1 85.2,50.6 66.7,36.6 48.2,50.6 				"/>
				<polygon class="st0" points="29.7,69.1 48.2,69.1 48.2,50.6 38.9,43.6 29.7,50.6 				"/>
				<g>
					<rect x="69" y="54.4" class="st0" width="8.6" height="14.7"/>
				</g>
				<g>
					<rect x="55.6" y="54.4" class="st0" width="8.6" height="8.6"/>
				</g>
				<g>
					<rect x="34.6" y="54.4" class="st0" width="8.6" height="8.6"/>
				</g>
				<polygon class="st0" points="58.9,42.5 58.9,39.5 55.6,39.5 55.6,45 				"/>
			</g>
		</g>
		<g>
			<g>
				<line class="st1" x1="387.1" y1="69.5" x2="378.4" y2="69.5"/>
				<g>
					<g>
						<circle class="st0" cx="382.8" cy="46.5" r="7.9"/>
					</g>
				</g>
			</g>
		</g>
		<g>
			<polygon class="st0" points="486.2,44.1 476.9,51.1 458.4,37.1 439.9,51.1 439.9,69.6 476.9,69.6 495.4,69.6 495.4,51.1 			"/>
			<g>
				<rect x="447.5" y="54.8" class="st0" width="8.6" height="14.7"/>
			</g>
			<g>
				<rect x="460.8" y="54.8" class="st0" width="8.6" height="8.6"/>
			</g>
			<g>
				<rect x="481.8" y="54.8" class="st0" width="8.6" height="8.6"/>
			</g>
			<polygon class="st0" points="466.2,43 466.2,40 469.5,40 469.5,45.5 			"/>
		</g>
		<g>
			<rect x="535.1" y="50.8" class="st0" width="37" height="18.5"/>
			<polygon class="st0" points="574.6,50.8 532.6,50.8 538.8,41 568.4,41 			"/>
			<g>
				<rect x="549.3" y="54.6" class="st0" width="8.6" height="14.7"/>
			</g>
			<g>
				<rect x="538.1" y="54.6" class="st0" width="8.6" height="8.6"/>
			</g>
			<g>
				<rect x="560.5" y="54.6" class="st0" width="8.6" height="8.6"/>
			</g>
			<rect x="543.4" y="37.4" class="st0" width="3.3" height="3.6"/>
		</g>
		<g>
			<polygon class="st0" points="200.9,47.8 198.5,47.8 197.8,42.2 201.6,42.2 			"/>
		</g>
		<g>
			<path class="st0" d="M401.9,59.8h23.5c5.3,0,9.7,4.3,9.7,9.7l0,0h-42.8l0,0C392.2,64.2,396.5,59.8,401.9,59.8z"/>
		</g>
		<g>
			<path class="st0" d="M509.5,59.8H533c5.3,0,9.7,4.3,9.7,9.7l0,0h-42.8l0,0C499.8,64.2,504.1,59.8,509.5,59.8z"/>
		</g>
		<g>
			<g>
				<line class="st1" x1="312.5" y1="69.5" x2="303.8" y2="69.5"/>
				<g>
					<g>
						<circle class="st0" cx="308.1" cy="51.4" r="7.9"/>
					</g>
				</g>
			</g>
		</g>
		<g>
			<g>
				<line class="st1" x1="302.5" y1="69.5" x2="293.8" y2="69.5"/>
				<g>
					<g>
						<circle class="st0" cx="298.2" cy="51.4" r="7.9"/>
					</g>
				</g>
			</g>
		</g>
		<g>
			<path class="st0" d="M586.1,69c-0.7-0.9-1.2-2-1.2-3.3c0-2.9,2.3-5.2,5.2-5.2s5.2,2.3,5.2,5.2c0,1.3-0.4,2.4-1.2,3.3H586.1z"/>
		</g>
	</g>
</g>
<g id="Layer_2">
	<line class="st1" x1="315.8" y1="43.3" x2="315.8" y2="68"/>
	<path class="st1" d="M325.5,30.9c-1.9,8.8-6.2,15.9-9.7,15.9c-3.4,0-7.8-7.1-9.7-15.9c-1.9-8.8,2.4-15.9,9.7-15.9
		S327.4,22.1,325.5,30.9z"/>
	<g>
		<polygon class="st1" points="24.4,61.3 26.8,59 29.3,61.3 29.3,68.8 24.4,68.8 		"/>
		<polygon class="st1" points="19.5,61.3 22,59 24.4,61.3 24.4,68.8 19.5,68.8 		"/>
		<polygon class="st1" points="14.6,61.3 17.1,59 19.5,61.3 19.5,68.8 14.6,68.8 		"/>
		<polygon class="st1" points="9.8,61.3 12.2,59 14.6,61.3 14.6,68.8 9.8,68.8 		"/>
		<polygon class="st1" points="4.9,61.3 7.3,59 9.8,61.3 9.8,68.8 4.9,68.8 		"/>
		<polygon class="st1" points="0,61.3 2.4,59 4.9,61.3 4.9,68.8 0,68.8 		"/>
	</g>
	<line class="st1" x1="382.4" y1="68.9" x2="382.4" y2="54.4"/>
	<line class="st1" x1="380.3" y1="48.7" x2="378.7" y2="48.7"/>
	<line class="st1" x1="383.8" y1="43.9" x2="382.3" y2="43.9"/>
	<line class="st1" x1="386.7" y1="47.6" x2="385.2" y2="47.6"/>
	<line class="st1" x1="199.7" y1="48.6" x2="199.7" y2="68"/>
	<polygon class="st1" points="203.3,42.2 196.2,42.2 199.7,40.7 	"/>
	<g>
		<g>
			<line class="st1" x1="397.7" y1="59.8" x2="397.7" y2="63.6"/>
			<line class="st1" x1="401.3" y1="59.8" x2="401.3" y2="63.6"/>
			<line class="st1" x1="404.8" y1="59.8" x2="404.8" y2="63.6"/>
			<line class="st1" x1="408.3" y1="59.8" x2="408.3" y2="63.6"/>
			<line class="st1" x1="411.8" y1="59.8" x2="411.8" y2="63.6"/>
			<line class="st1" x1="415.4" y1="59.8" x2="415.4" y2="63.6"/>
			<line class="st1" x1="418.9" y1="59.8" x2="418.9" y2="63.6"/>
			<line class="st1" x1="422.4" y1="59.8" x2="422.4" y2="63.6"/>
			<line class="st1" x1="425.9" y1="59.8" x2="425.9" y2="63.6"/>
			<line class="st1" x1="429.5" y1="59.8" x2="429.5" y2="63.6"/>
		</g>
	</g>
	<g>
		<g>
			<line class="st1" x1="505.3" y1="59.8" x2="505.3" y2="63.6"/>
			<line class="st1" x1="508.8" y1="59.8" x2="508.8" y2="63.6"/>
			<line class="st1" x1="512.4" y1="59.8" x2="512.4" y2="63.6"/>
			<line class="st1" x1="515.9" y1="59.8" x2="515.9" y2="63.6"/>
			<line class="st1" x1="519.4" y1="59.8" x2="519.4" y2="63.6"/>
			<line class="st1" x1="522.9" y1="59.8" x2="522.9" y2="63.6"/>
			<line class="st1" x1="526.5" y1="59.8" x2="526.5" y2="63.6"/>
			<line class="st1" x1="530" y1="59.8" x2="530" y2="63.6"/>
			<line class="st1" x1="533.5" y1="59.8" x2="533.5" y2="63.6"/>
			<line class="st1" x1="537" y1="59.8" x2="537" y2="63.6"/>
		</g>
	</g>
	<line class="st1" x1="307.8" y1="68.9" x2="307.8" y2="59.3"/>
	<line class="st1" x1="304.9" y1="51.4" x2="303.3" y2="51.4"/>
	<line class="st1" x1="311.4" y1="48.7" x2="309.9" y2="48.7"/>
	<line class="st1" x1="310.6" y1="55" x2="309" y2="55"/>
	<line class="st1" x1="297.8" y1="68.9" x2="297.8" y2="59.3"/>
	<line class="st1" x1="294.9" y1="51.4" x2="293.4" y2="51.4"/>
	<line class="st1" x1="301.4" y1="48.7" x2="299.9" y2="48.7"/>
	<line class="st1" x1="300.6" y1="55" x2="299.1" y2="55"/>
</g>
</svg>
