<?xml version="1.0" encoding="utf-8"?>
<!-- Generator: Adobe Illustrator 25.0.0, SVG Export Plug-In . SVG Version: 6.00 Build 0)  -->
<svg version="1.1" xmlns="http://www.w3.org/2000/svg" xmlns:xlink="http://www.w3.org/1999/xlink" x="0px" y="0px"
	 viewBox="0 0 595.3 69.6" style="enable-background:new 0 0 595.3 69.6;" xml:space="preserve">
<style type="text/css">
	.st0{fill:none;stroke:#EDEDE9;stroke-linecap:round;stroke-linejoin:round;stroke-miterlimit:10;}
</style>
<g id="Layer_1">
	<g>
		<g>
			<polygon class="st0" points="167.9,69.4 134.9,50 103.8,69.4 			"/>
			<g>
				<polygon class="st0" points="106,69.4 91.6,37 78.1,69.4 				"/>
				<polygon class="st0" points="116.5,69.4 107.3,55 98.5,69.4 				"/>
				<polygon class="st0" points="85.4,52 89.9,48.7 92.3,52.2 93.9,48.1 98.6,52.7 91.6,37 				"/>
			</g>
		</g>
		<g>
			<polyline class="st0" points="210.4,69.5 210.4,9.2 224.4,1.7 237.6,9 237.6,69.5 			"/>
			<g>
				<g>
					<g>
						<rect x="216.2" y="14.5" class="st0" width="5.6" height="5.6"/>
						<rect x="226.2" y="14.5" class="st0" width="5.6" height="5.6"/>
					</g>
				</g>
				<g>
					<g>
						<rect x="216.2" y="23.5" class="st0" width="5.6" height="5.6"/>
						<rect x="226.2" y="23.5" class="st0" width="5.6" height="5.6"/>
					</g>
				</g>
				<g>
					<g>
						<rect x="216.2" y="32.5" class="st0" width="5.6" height="5.6"/>
						<rect x="226.2" y="32.5" class="st0" width="5.6" height="5.6"/>
					</g>
				</g>
				<g>
					<g>
						<rect x="216.2" y="41.5" class="st0" width="5.6" height="5.6"/>
						<rect x="226.2" y="41.5" class="st0" width="5.6" height="5.6"/>
					</g>
				</g>
				<g>
					<g>
						<rect x="216.2" y="50.5" class="st0" width="5.6" height="5.6"/>
						<rect x="226.2" y="50.5" class="st0" width="5.6" height="5.6"/>
					</g>
				</g>
			</g>
			<g>
				<polyline class="st0" points="219.6,69.5 219.6,59.5 228.4,59.5 228.4,69.5 				"/>
			</g>
		</g>
		<polyline class="st0" points="264.6,69.3 264.6,0 286.5,4.3 286.5,69.4 		"/>
		<g>
			<rect x="277.4" y="10.7" class="st0" width="4.5" height="4.5"/>
			<rect x="269.3" y="10.7" class="st0" width="4.5" height="4.5"/>
		</g>
		<g>
			<g>
				<rect x="277.4" y="17.9" class="st0" width="4.5" height="4.5"/>
				<rect x="269.3" y="17.9" class="st0" width="4.5" height="4.5"/>
			</g>
		</g>
		<g>
			<polyline class="st0" points="264.6,69.5 264.6,36 250.6,28.6 237.4,36.6 237.4,69.5 			"/>
			<g>
				<rect x="253.2" y="41.6" class="st0" width="5.5" height="5.5"/>
				<rect x="243.2" y="41.6" class="st0" width="5.5" height="5.5"/>
			</g>
			<g>
				<rect x="253.2" y="50.6" class="st0" width="5.5" height="5.5"/>
				<rect x="243.2" y="50.6" class="st0" width="5.5" height="5.5"/>
			</g>
			<g>
				<polyline class="st0" points="254.9,69.5 254.9,59.6 246.2,59.6 246.2,69.5 				"/>
			</g>
		</g>
		<g>
			<g>
				<path class="st0" d="M174.7,69.1c-1.4-1.7-2.3-4-2.3-6.4c0-5.5,4.5-10,10-10s10,4.5,10,10c0,2.4-0.9,4.7-2.3,6.4H174.7z"/>
			</g>
		</g>
		<g>
			<rect x="277.4" y="25.2" class="st0" width="4.5" height="4.5"/>
			<rect x="269.3" y="25.2" class="st0" width="4.5" height="4.5"/>
		</g>
		<g>
			<rect x="277.4" y="32.5" class="st0" width="4.5" height="4.5"/>
			<rect x="269.3" y="32.5" class="st0" width="4.5" height="4.5"/>
		</g>
		<g>
			<rect x="277.4" y="39.7" class="st0" width="4.5" height="4.5"/>
			<rect x="269.3" y="39.7" class="st0" width="4.5" height="4.5"/>
		</g>
		<g>
			<rect x="277.4" y="47" class="st0" width="4.5" height="4.5"/>
			<rect x="269.3" y="47" class="st0" width="4.5" height="4.5"/>
		</g>
		<g>
			<polygon class="st0" points="369.5,69.6 332.5,69.6 332.5,36.4 351,22.5 369.5,36.4 			"/>
			<g>
				<g>
					<rect x="336.3" y="40.2" class="st0" width="8.6" height="8.6"/>
				</g>
				<g>
					<rect x="348.4" y="40.2" class="st0" width="17.3" height="8.6"/>
				</g>
			</g>
			<g>
				<g>
					<rect x="336.3" y="54.8" class="st0" width="8.6" height="8.6"/>
				</g>
				<g>
					<rect x="348.4" y="54.8" class="st0" width="17.3" height="8.6"/>
				</g>
			</g>
			<polygon class="st0" points="358.8,28.4 358.8,25.3 362.1,25.3 362.1,30.9 			"/>
		</g>
		<g>
			<g>
				<polygon class="st0" points="48.2,69.1 85.2,69.1 85.2,50.6 66.7,36.6 48.2,50.6 				"/>
				<polygon class="st0" points="29.7,69.1 48.2,69.1 48.2,50.6 38.9,43.6 29.7,50.6 				"/>
				<g>
					<rect x="69" y="54.4" class="st0" width="8.6" height="14.7"/>
				</g>
				<g>
					<rect x="55.6" y="54.4" class="st0" width="8.6" height="8.6"/>
				</g>
				<g>
					<rect x="34.6" y="54.4" class="st0" width="8.6" height="8.6"/>
				</g>
				<polygon class="st0" points="58.9,42.5 58.9,39.5 55.6,39.5 55.6,45 				"/>
			</g>
		</g>
		<g>
			<g>
				<g>
					<g>
						<circle class="st0" cx="382.8" cy="46.5" r="7.9"/>
					</g>
				</g>
			</g>
		</g>
		<g>
			<polygon class="st0" points="486.2,44.1 476.9,51.1 458.4,37.1 439.9,51.1 439.9,69.6 476.9,69.6 495.4,69.6 495.4,51.1 			"/>
			<g>
				<rect x="447.5" y="54.8" class="st0" width="8.6" height="14.7"/>
			</g>
			<g>
				<rect x="460.8" y="54.8" class="st0" width="8.6" height="8.6"/>
			</g>
			<g>
				<rect x="481.8" y="54.8" class="st0" width="8.6" height="8.6"/>
			</g>
			<polygon class="st0" points="466.2,43 466.2,40 469.5,40 469.5,45.5 			"/>
		</g>
		<g>
			<rect x="535.1" y="50.8" class="st0" width="37" height="18.5"/>
			<polygon class="st0" points="574.6,50.8 532.6,50.8 538.8,41 568.4,41 			"/>
			<g>
				<rect x="549.3" y="54.6" class="st0" width="8.6" height="14.7"/>
			</g>
			<g>
				<rect x="538.1" y="54.6" class="st0" width="8.6" height="8.6"/>
			</g>
			<g>
				<rect x="560.5" y="54.6" class="st0" width="8.6" height="8.6"/>
			</g>
			<rect x="543.4" y="37.4" class="st0" width="3.3" height="3.6"/>
		</g>
		<g>
			<polygon class="st0" points="200.9,47.8 198.5,47.8 197.8,42.2 201.6,42.2 			"/>
		</g>
		<g>
			<path class="st0" d="M401.9,59.8h23.5c5.3,0,9.7,4.3,9.7,9.7l0,0h-42.8l0,0C392.2,64.2,396.5,59.8,401.9,59.8z"/>
		</g>
		<g>
			<path class="st0" d="M509.5,59.8H533c5.3,0,9.7,4.3,9.7,9.7l0,0h-42.8l0,0C499.8,64.2,504.1,59.8,509.5,59.8z"/>
		</g>
		<g>
			<g>
				<g>
					<g>
						<circle class="st0" cx="308.1" cy="51.4" r="7.9"/>
					</g>
				</g>
			</g>
		</g>
		<g>
			<g>
				<g>
					<g>
						<circle class="st0" cx="298.2" cy="51.4" r="7.9"/>
					</g>
				</g>
			</g>
		</g>
		<g>
			<path class="st0" d="M586.1,69c-0.7-0.9-1.2-2-1.2-3.3c0-2.9,2.3-5.2,5.2-5.2s5.2,2.3,5.2,5.2c0,1.3-0.4,2.4-1.2,3.3H586.1z"/>
		</g>
	</g>
</g>
<g id="Layer_2">
		S327.4,22.1,325.5,30.9z"/>
	<g>
	</g>
	<g>
		<g>
		</g>
	</g>
	<g>
		<g>
		</g>
	</g>
</g>
</svg>
