<svg width="48" height="54" viewBox="0 0 48 54" fill="none" xmlns="http://www.w3.org/2000/svg">
<path d="M26.743 0.734982L45.257 11.423C46.091 11.9045 46.7835 12.5971 47.265 13.4311C47.7465 14.2651 48 15.2111 48 16.1741V37.5522C48 38.5152 47.7465 39.4612 47.265 40.2952C46.7835 41.1292 46.091 41.8218 45.257 42.3033L38.6294 46.1554L38.6323 42.6596H38.6294V35.5788L33.1434 38.8704V47.1881L33.1463 47.1932L33.1444 49.2965L26.7432 52.9923C25.9092 53.4738 24.9632 53.7273 24.0002 53.7273C23.0372 53.7273 22.0912 53.4738 21.2572 52.9923L14.8607 49.2996V49.2409H14.8562V38.8704L9.37025 35.5788V41.9073L9.373 41.9088L9.3683 46.1562L2.74299 42.3033C1.90901 41.8218 1.21646 41.1292 0.734968 40.2952C0.253472 39.4612 -9.9287e-06 38.5152 2.91681e-10 37.5522V16.1741C-9.9287e-06 15.2111 0.253472 14.2651 0.734968 13.4311C1.21646 12.5971 1.90901 11.9045 2.74299 11.423L21.257 0.734982C22.091 0.253487 23.037 0 24 0C24.963 0 25.909 0.253487 26.743 0.734982V0.734982ZM3.65739 18.9422V37.5522C3.6574 37.8732 3.74191 38.1885 3.90242 38.4665C4.06293 38.7445 4.29379 38.9754 4.57178 39.1359L5.71346 39.795V35.5788C5.71345 34.9316 5.88518 34.296 6.21113 33.7369C6.53709 33.1777 7.00558 32.7151 7.56877 32.3963C8.13197 32.0774 8.76969 31.9137 9.41684 31.9219C10.064 31.93 10.6974 32.1098 11.2523 32.4428L16.7383 35.7344C17.2799 36.0593 17.7281 36.5189 18.0393 37.0685C18.3505 37.618 18.514 38.2388 18.514 38.8704V47.1842L22.172 49.2963V29.7427L3.65739 18.9422ZM44.3426 18.9422L25.8286 29.7421L25.8272 49.2957L29.4852 47.1836V38.8698C29.4852 38.2382 29.6487 37.6174 29.9599 37.0679C30.2711 36.5183 30.7193 36.0587 31.2609 35.7338L36.7469 32.4422C37.3018 32.1092 37.9352 31.9294 38.5824 31.9213C39.2295 31.9131 39.8673 32.0768 40.4304 32.3957C40.9936 32.7145 41.4621 33.1772 41.7881 33.7363C42.114 34.2954 42.2858 34.931 42.2858 35.5782V39.7944L43.4276 39.1353C43.7056 38.9748 43.9364 38.7439 44.0969 38.4659C44.2574 38.1879 44.3419 37.8726 44.3418 37.5516L44.3426 18.9422ZM43.892 14.9713C43.7596 14.8197 43.6031 14.691 43.4288 14.5904L25.8286 4.4292V25.5079L43.8916 14.9713H43.892ZM4.10881 14.9713L22.1718 25.5079V4.4292L4.57178 14.5904C4.39735 14.6909 4.24077 14.8196 4.10841 14.9713H4.10881Z" fill="#B2CA06"/>
</svg>
